<svg width="90" height="62" viewBox="0 0 90 62" fill="none" xmlns="http://www.w3.org/2000/svg">
<path d="M45.162 6.48005C44.082 6.49205 43.296 6.91205 42.816 7.41605C42.174 8.08805 42.012 8.87405 42.012 8.87405L43.188 9.12005C43.188 9.12005 43.29 8.65205 43.68 8.24405C44.07 7.83605 44.688 7.46405 46.062 7.78205L46.332 6.61205C45.912 6.51605 45.522 6.47405 45.162 6.48005Z" fill="black"/>
<path d="M46.584 8.802L45.456 9.198C45.456 9.198 45.636 9.726 45.876 10.332C46.068 10.836 46.284 11.328 46.494 11.736C46.236 11.766 45.738 11.748 45.06 11.454L44.58 12.558C45.468 12.942 46.224 13.062 46.836 12.936C47.142 12.876 47.448 12.75 47.652 12.444C47.856 12.138 47.82 11.688 47.646 11.4C47.52 11.19 47.22 10.494 46.992 9.906C46.764 9.312 46.584 8.802 46.584 8.802Z" fill="black"/>
<path d="M51.696 15.5579L51.3 16.0079C50.718 16.6679 49.68 16.8059 49.674 16.8059L49.626 16.8119L49.614 16.7279L49.026 16.8119C49.026 16.8119 48.864 16.8359 48.612 16.8359C47.994 16.8359 46.794 16.7099 45.762 15.8699L45.294 15.4919L43.782 17.3579L44.244 17.7359C45.852 19.0439 47.676 19.2359 48.624 19.2359C48.954 19.2359 49.194 19.2119 49.314 19.1999L49.32 19.2419L49.908 19.1999C49.986 19.1939 51.84 19.0379 53.106 17.5979L53.502 17.1479L51.696 15.5579Z" fill="black"/>
<path d="M48.702 23.988C48.81 23.988 48.918 23.994 49.026 23.994C49.026 23.994 49.02 23.994 49.02 24H48.732L48.702 23.988Z" fill="black"/>
<path d="M58.29 23.91C58.26 23.478 58.08 23.244 57.99 23.136L57.984 23.124C57.888 22.998 57.798 22.908 57.72 22.83C57.576 22.692 57.402 22.56 57.18 22.398C56.856 22.164 56.424 21.882 55.866 21.54C55.614 21.384 55.416 21.27 55.248 21.168C55.506 20.736 55.806 20.16 56.124 19.38C56.838 17.61 57.636 14.658 57.354 10.668C57.102 7.14003 55.914 4.47003 53.814 2.72403C52.308 1.47003 50.388 0.744028 48.096 0.558028V0.510028H47.4C47.34 0.510028 47.292 0.516028 47.25 0.516028C47.238 0.516028 47.22 0.516028 47.208 0.516028C47.16 0.516028 47.112 0.516028 47.064 0.510028C46.98 0.510028 46.89 0.504028 46.8 0.504028C43.242 0.534028 40.44 1.10403 38.466 2.20203C36.612 3.24003 35.856 4.63803 35.55 5.71803C35.25 5.91003 34.812 6.26403 34.434 6.91203C33.972 7.69203 33.546 9.11403 34.02 11.532C33.324 12.192 32.874 13.08 32.76 14.028C32.592 15.42 32.994 16.746 33.864 17.676C34.716 18.588 35.628 18.936 36.252 19.074C36.264 19.074 36.27 19.08 36.282 19.08C36.438 19.662 36.69 20.418 37.05 21.222C36.468 21.552 35.622 22.032 34.632 22.602C33.774 23.1 32.994 23.562 32.436 23.91C32.106 24.114 31.86 24.27 31.674 24.402C31.554 24.48 31.458 24.552 31.374 24.624L31.362 24.636C31.32 24.672 31.272 24.72 31.206 24.786C31.062 24.918 30.894 25.128 30.846 25.554L30.78 26.136L32.142 29.496H57.474L57.678 28.452C57.684 28.416 57.846 27.588 58.008 26.64L58.026 26.532C58.176 25.536 58.332 24.606 58.29 23.91ZM54.732 14.226L54.726 14.274C54.57 15.774 54.234 17.166 53.724 18.426C53.46 19.086 53.196 19.59 52.962 19.974L52.908 19.938L52.518 20.55C52.506 20.568 51.498 22.116 49.194 22.116C46.518 22.116 44.19 20.814 43.536 20.118C42.846 19.392 42.672 18.408 42.672 18.402L42.564 17.73L40.026 18.108L40.122 18.786C40.134 18.858 40.38 20.526 41.658 21.888C41.898 22.146 42.198 22.398 42.54 22.644C42.534 22.65 42.534 22.656 42.528 22.656C41.7 22.554 41.004 22.284 40.458 21.852C40.062 21.54 39.918 21.312 39.888 21.252L39.786 21.084C39.306 20.304 38.97 19.236 38.784 18.498C39.072 18.198 39.33 17.826 39.552 17.376L39.858 16.758L37.614 15.63L40.914 13.98L40.89 13.152V13.14C40.884 13.068 40.848 12.426 40.518 11.496C40.476 11.382 40.416 11.028 40.71 10.182C40.788 9.96603 40.878 9.75003 40.968 9.52203C41.16 9.04803 41.364 8.55603 41.46 8.03403C41.574 7.41603 41.508 6.79803 41.256 6.22203C41.508 5.82603 41.814 5.44803 42.168 5.09403C43.452 3.81003 45.138 3.13803 47.19 3.09603C49.254 3.15003 50.922 3.69003 52.152 4.71003C52.62 5.10003 53.034 5.56803 53.376 6.10203L53.802 7.03803C54.522 8.62803 55.26 11.154 54.732 14.226ZM35.316 14.346C35.382 13.806 35.634 13.344 35.958 13.164L35.988 13.152L36.03 13.128C36.492 12.87 36.726 12.84 36.81 12.84C36.822 12.84 36.834 12.84 36.834 12.84C36.846 12.852 36.864 12.876 36.888 12.924C37.026 13.158 37.092 13.626 37.104 13.83L37.128 15.87L37.506 15.684L37.242 16.218C37.17 16.356 37.098 16.482 37.032 16.578C36.984 16.578 36.9 16.572 36.774 16.542C36.408 16.464 36.066 16.26 35.742 15.912C35.412 15.564 35.244 14.946 35.316 14.346Z" fill="black"/>
<path d="M50.622 5.03999C49.542 5.05199 48.756 5.47199 48.276 5.97599C47.634 6.64799 47.472 7.43399 47.472 7.43399L48.648 7.67999C48.648 7.67999 48.75 7.21199 49.14 6.80399C49.53 6.39599 50.148 6.02399 51.522 6.34199L51.792 5.17199C51.372 5.07599 50.982 5.03399 50.622 5.03999Z" fill="black"/>
<path d="M52.044 7.36206L50.916 7.75806C50.916 7.75806 51.096 8.28606 51.336 8.89206C51.528 9.39606 51.744 9.88806 51.954 10.2961C51.696 10.3261 51.198 10.3081 50.52 10.0141L50.04 11.1181C50.928 11.5021 51.684 11.6221 52.296 11.4961C52.602 11.4361 52.908 11.3101 53.112 11.0041C53.316 10.6981 53.28 10.2481 53.106 9.96006C52.98 9.75006 52.68 9.05406 52.452 8.46606C52.224 7.87206 52.044 7.36206 52.044 7.36206Z" fill="black"/>
<path d="M30.5703 50.5098V44.4688H31.6953V50.5098C31.6953 51.0723 31.5801 51.5469 31.3496 51.9336C31.1191 52.3203 30.8008 52.6152 30.3945 52.8184C29.9922 53.0176 29.5293 53.1172 29.0059 53.1172C28.4824 53.1172 28.0176 53.0273 27.6113 52.8477C27.2051 52.668 26.8867 52.3945 26.6562 52.0273C26.4258 51.6602 26.3105 51.1973 26.3105 50.6387H27.4414C27.4414 50.998 27.5078 51.293 27.6406 51.5234C27.7734 51.7539 27.957 51.9238 28.1914 52.0332C28.4297 52.1426 28.7012 52.1973 29.0059 52.1973C29.3027 52.1973 29.5684 52.1348 29.8027 52.0098C30.041 51.8809 30.2285 51.6914 30.3652 51.4414C30.502 51.1875 30.5703 50.877 30.5703 50.5098ZM36.5781 53.1172C36.1367 53.1172 35.7363 53.043 35.377 52.8945C35.0215 52.7422 34.7148 52.5293 34.457 52.2559C34.2031 51.9824 34.0078 51.6582 33.8711 51.2832C33.7344 50.9082 33.666 50.498 33.666 50.0527V49.8066C33.666 49.291 33.7422 48.832 33.8945 48.4297C34.0469 48.0234 34.2539 47.6797 34.5156 47.3984C34.7773 47.1172 35.0742 46.9043 35.4062 46.7598C35.7383 46.6152 36.082 46.543 36.4375 46.543C36.8906 46.543 37.2812 46.6211 37.6094 46.7773C37.9414 46.9336 38.2129 47.1523 38.4238 47.4336C38.6348 47.7109 38.791 48.0391 38.8926 48.418C38.9941 48.793 39.0449 49.2031 39.0449 49.6484V50.1348H34.3105V49.25H37.9609V49.168C37.9453 48.8867 37.8867 48.6133 37.7852 48.3477C37.6875 48.082 37.5312 47.8633 37.3164 47.6914C37.1016 47.5195 36.8086 47.4336 36.4375 47.4336C36.1914 47.4336 35.9648 47.4863 35.7578 47.5918C35.5508 47.6934 35.373 47.8457 35.2246 48.0488C35.0762 48.252 34.9609 48.5 34.8789 48.793C34.7969 49.0859 34.7559 49.4238 34.7559 49.8066V50.0527C34.7559 50.3535 34.7969 50.6367 34.8789 50.9023C34.9648 51.1641 35.0879 51.3945 35.248 51.5938C35.4121 51.793 35.6094 51.9492 35.8398 52.0625C36.0742 52.1758 36.3398 52.2324 36.6367 52.2324C37.0195 52.2324 37.3438 52.1543 37.6094 51.998C37.875 51.8418 38.1074 51.6328 38.3066 51.3711L38.9629 51.8926C38.8262 52.0996 38.6523 52.2969 38.4414 52.4844C38.2305 52.6719 37.9707 52.8242 37.6621 52.9414C37.3574 53.0586 36.9961 53.1172 36.5781 53.1172ZM41.8945 48.0137V53H40.8105V46.6602H41.8359L41.8945 48.0137ZM41.6367 49.5898L41.1855 49.5723C41.1895 49.1387 41.2539 48.7383 41.3789 48.3711C41.5039 48 41.6797 47.6777 41.9062 47.4043C42.1328 47.1309 42.4023 46.9199 42.7148 46.7715C43.0312 46.6191 43.3809 46.543 43.7637 46.543C44.0762 46.543 44.3574 46.5859 44.6074 46.6719C44.8574 46.7539 45.0703 46.8867 45.2461 47.0703C45.4258 47.2539 45.5625 47.4922 45.6562 47.7852C45.75 48.0742 45.7969 48.4277 45.7969 48.8457V53H44.707V48.834C44.707 48.502 44.6582 48.2363 44.5605 48.0371C44.4629 47.834 44.3203 47.6875 44.1328 47.5977C43.9453 47.5039 43.7148 47.457 43.4414 47.457C43.1719 47.457 42.9258 47.5137 42.7031 47.627C42.4844 47.7402 42.2949 47.8965 42.1348 48.0957C41.9785 48.2949 41.8555 48.5234 41.7656 48.7812C41.6797 49.0352 41.6367 49.3047 41.6367 49.5898ZM49.0332 44V53H47.9434V44H49.0332ZM52.9062 46.6602L50.1406 49.6191L48.5938 51.2246L48.5059 50.0703L49.6133 48.7461L51.582 46.6602H52.9062ZM51.916 53L49.6543 49.9766L50.2168 49.0098L53.1934 53H51.916ZM55.7031 46.6602V53H54.6133V46.6602H55.7031ZM54.5312 44.9785C54.5312 44.8027 54.584 44.6543 54.6895 44.5332C54.7988 44.4121 54.959 44.3516 55.1699 44.3516C55.377 44.3516 55.5352 44.4121 55.6445 44.5332C55.7578 44.6543 55.8145 44.8027 55.8145 44.9785C55.8145 45.1465 55.7578 45.291 55.6445 45.4121C55.5352 45.5293 55.377 45.5879 55.1699 45.5879C54.959 45.5879 54.7988 45.5293 54.6895 45.4121C54.584 45.291 54.5312 45.1465 54.5312 44.9785ZM59.0273 48.0137V53H57.9434V46.6602H58.9688L59.0273 48.0137ZM58.7695 49.5898L58.3184 49.5723C58.3223 49.1387 58.3867 48.7383 58.5117 48.3711C58.6367 48 58.8125 47.6777 59.0391 47.4043C59.2656 47.1309 59.5352 46.9199 59.8477 46.7715C60.1641 46.6191 60.5137 46.543 60.8965 46.543C61.209 46.543 61.4902 46.5859 61.7402 46.6719C61.9902 46.7539 62.2031 46.8867 62.3789 47.0703C62.5586 47.2539 62.6953 47.4922 62.7891 47.7852C62.8828 48.0742 62.9297 48.4277 62.9297 48.8457V53H61.8398V48.834C61.8398 48.502 61.791 48.2363 61.6934 48.0371C61.5957 47.834 61.4531 47.6875 61.2656 47.5977C61.0781 47.5039 60.8477 47.457 60.5742 47.457C60.3047 47.457 60.0586 47.5137 59.8359 47.627C59.6172 47.7402 59.4277 47.8965 59.2676 48.0957C59.1113 48.2949 58.9883 48.5234 58.8984 48.7812C58.8125 49.0352 58.7695 49.3047 58.7695 49.5898Z" fill="black" fill-opacity="0.8"/>
</svg>
