<svg width="15" height="17" viewBox="0 0 15 17" fill="none" xmlns="http://www.w3.org/2000/svg">
<path d="M4.5 3.67857V2.07143C4.5 1.78727 4.60536 1.51475 4.79289 1.31381C4.98043 1.11288 5.23478 1 5.5 1H9.5C9.76522 1 10.0196 1.11288 10.2071 1.31381C10.3946 1.51475 10.5 1.78727 10.5 2.07143V3.67857M0 4.21429H15M1.5 4.21429V14.9286C1.5 15.2127 1.60536 15.4853 1.79289 15.6862C1.98043 15.8871 2.23478 16 2.5 16H12.5C12.7652 16 13.0196 15.8871 13.2071 15.6862C13.3946 15.4853 13.5 15.2127 13.5 14.9286V4.21429M7.5 7.96429V13.3214M4.5 10.1071V13.3214M10.5 10.1071V13.3214" stroke="#1D1D1D" stroke-width="1.5"/>
</svg>
