<svg width="118" height="111" viewBox="0 0 118 111" fill="none" xmlns="http://www.w3.org/2000/svg">
<path fill-rule="evenodd" clip-rule="evenodd" d="M103.25 31.2188V76.3125H95.875V31.2188H81.125C78.191 31.2188 75.3773 30.1224 73.3026 28.1708C71.228 26.2193 70.0625 23.5724 70.0625 20.8125V6.9375H29.5C27.544 6.9375 25.6682 7.66841 24.2851 8.96945C22.902 10.2705 22.125 12.0351 22.125 13.875V76.3125H14.75V13.875C14.75 10.1951 16.304 6.66596 19.0702 4.06389C21.8363 1.46183 25.5881 0 29.5 0L70.0625 0L103.25 31.2188ZM11.0625 82.2094H22.8625C24.9963 82.2094 26.7958 82.6233 28.261 83.4512C29.7458 84.2606 30.8767 85.3636 31.6535 86.7604C32.4303 88.1571 32.8187 89.7227 32.8187 91.4571C32.8187 93.1914 32.4254 94.757 31.6388 96.1537C30.857 97.5366 29.7163 98.6327 28.2167 99.4421C26.5608 100.282 24.6987 100.696 22.8183 100.642H16.8887V109.952H11.0625V82.2094ZM26.255 94.1003C26.6928 93.2814 26.9081 92.3733 26.8819 91.4571C26.8819 89.8846 26.4271 88.6797 25.5175 87.8426C24.6079 87.0009 23.3468 86.58 21.7341 86.58H16.874V96.3341H21.7415C22.6963 96.3573 23.6428 96.1621 24.4998 95.7653C25.2503 95.3899 25.8623 94.8094 26.255 94.1003ZM35.8573 82.2094H47.6572C49.7911 82.2094 51.5906 82.6233 53.0557 83.4512C54.5406 84.2606 55.6714 85.3636 56.4482 86.7604C57.2251 88.1571 57.6135 89.7227 57.6135 91.4571C57.6135 93.1914 57.2202 94.757 56.4335 96.1537C55.6567 97.5366 54.516 98.6327 53.0115 99.4421C51.3556 100.282 49.4934 100.696 47.613 100.642H41.6909V109.952H35.8646L35.8573 82.2094ZM51.0498 94.1003C51.4875 93.2814 51.7029 92.3733 51.6766 91.4571C51.6766 89.8846 51.2218 88.6797 50.3123 87.8426C49.4076 87.0009 48.1465 86.58 46.5289 86.58H41.6688V96.3341H46.5363C47.4911 96.3573 48.4376 96.1621 49.2945 95.7653C50.0451 95.3899 50.6571 94.8094 51.0498 94.1003ZM72.0833 109.952V86.802H80.4686V82.2094H57.8643V86.802H66.2275V109.952H72.0833ZM100.079 82.2094H106.665L97.2689 96.1329L106.517 109.952H99.8206L93.5519 100.136H93.2937L87.0029 109.952H80.653L89.798 95.9664L80.7415 82.2094H87.6076L93.7436 92.1924H94.0018L100.079 82.2094Z" fill="#F24E1E"/>
</svg>
