<svg width="30" height="30" viewBox="0 0 30 30" fill="none" xmlns="http://www.w3.org/2000/svg">
<path d="M3.49999 7.99995C3.50019 7.05187 3.74546 6.11993 4.21201 5.29458C4.67855 4.46923 5.35053 3.7785 6.16273 3.28942C6.97492 2.80033 7.89976 2.5295 8.84748 2.50321C9.7952 2.47692 10.7336 2.69607 11.5717 3.13937C12.4097 3.58268 13.119 4.23509 13.6306 5.03331C14.1421 5.83152 14.4387 6.74843 14.4915 7.69505C14.5442 8.64166 14.3514 9.58584 13.9317 10.436C13.5119 11.2861 12.8796 12.0133 12.096 12.547C13.7835 13.1659 15.2472 14.2757 16.2986 15.7335C17.3501 17.1913 17.9412 18.9304 17.996 20.727C17.9937 20.9207 17.9166 21.106 17.7808 21.2442C17.6451 21.3824 17.4612 21.4628 17.2676 21.4686C17.0739 21.4744 16.8855 21.4052 16.7418 21.2753C16.598 21.1455 16.5099 20.9652 16.496 20.772C16.4364 18.8234 15.6205 16.9746 14.2212 15.6174C12.8218 14.2601 10.9489 13.5011 8.99949 13.5011C7.05004 13.5011 5.17718 14.2601 3.77782 15.6174C2.37845 16.9746 1.56254 18.8234 1.50299 20.772C1.49298 20.9678 1.40667 21.1519 1.26255 21.2849C1.11843 21.4178 0.927967 21.4891 0.731962 21.4833C0.535957 21.4776 0.350001 21.3953 0.21393 21.2541C0.0778594 21.1129 0.00249738 20.924 0.00398901 20.728C0.0585404 18.9312 0.649596 17.1919 1.70107 15.7339C2.75255 14.2759 4.21633 13.166 5.90399 12.547C5.16282 12.0426 4.55628 11.3646 4.13726 10.572C3.71824 9.77947 3.49946 8.89645 3.49999 7.99995ZM8.99999 3.99995C7.93912 3.99995 6.92171 4.42138 6.17156 5.17153C5.42142 5.92167 4.99999 6.93909 4.99999 7.99995C4.99999 9.06082 5.42142 10.0782 6.17156 10.8284C6.92171 11.5785 7.93912 12 8.99999 12C10.0609 12 11.0783 11.5785 11.8284 10.8284C12.5786 10.0782 13 9.06082 13 7.99995C13 6.93909 12.5786 5.92167 11.8284 5.17153C11.0783 4.42138 10.0609 3.99995 8.99999 3.99995ZM17.29 7.99995C17.142 7.99995 16.998 8.00995 16.856 8.02995C16.7568 8.0477 16.6551 8.04531 16.5569 8.0229C16.4588 8.00049 16.3661 7.95854 16.2845 7.89954C16.2028 7.84054 16.1339 7.7657 16.0818 7.67949C16.0298 7.59328 15.9956 7.49747 15.9813 7.39776C15.9671 7.29805 15.9731 7.1965 15.9989 7.09916C16.0248 7.00181 16.07 6.91068 16.1318 6.83118C16.1937 6.75168 16.2709 6.68546 16.3589 6.63645C16.4469 6.58745 16.5438 6.55667 16.644 6.54595C17.6386 6.40216 18.6527 6.59315 19.5269 7.08888C20.401 7.5846 21.0855 8.35692 21.4726 9.28428C21.8597 10.2116 21.9275 11.2414 21.6652 12.2115C21.403 13.1816 20.8256 14.0369 20.024 14.643C21.2024 15.1706 22.2029 16.028 22.9049 17.1116C23.6068 18.1952 23.9802 19.4588 23.98 20.75C23.98 20.9489 23.901 21.1396 23.7603 21.2803C23.6197 21.4209 23.4289 21.5 23.23 21.5C23.0311 21.5 22.8403 21.4209 22.6997 21.2803C22.559 21.1396 22.48 20.9489 22.48 20.75C22.4799 19.6341 22.1203 18.548 21.4546 17.6524C20.7889 16.7569 19.8525 16.0996 18.784 15.778L18.25 15.618V13.942L18.66 13.733C19.2677 13.4251 19.754 12.9214 20.0403 12.3032C20.3266 11.685 20.3962 10.9883 20.2378 10.3257C20.0795 9.66309 19.7024 9.07316 19.1676 8.65118C18.6327 8.22919 17.9713 7.99977 17.29 7.99995Z" fill="black"/>
</svg>
