<svg width="20" height="20" viewBox="0 0 20 20" fill="none" xmlns="http://www.w3.org/2000/svg">
<g clip-path="url(#clip0_163_811)">
<path d="M6 4.00008V2.00008C6 1.64646 6.14048 1.30732 6.39052 1.05727C6.64057 0.807224 6.97971 0.666748 7.33333 0.666748H12.6667C13.0203 0.666748 13.3594 0.807224 13.6095 1.05727C13.8595 1.30732 14 1.64646 14 2.00008V4.00008M0 4.66675H20M2 4.66675V18.0001C2 18.3537 2.14048 18.6928 2.39052 18.9429C2.64057 19.1929 2.97971 19.3334 3.33333 19.3334H16.6667C17.0203 19.3334 17.3594 19.1929 17.6095 18.9429C17.8595 18.6928 18 18.3537 18 18.0001V4.66675M10 9.33341V16.0001M6 12.0001V16.0001M14 12.0001V16.0001" stroke="#F31F1F" stroke-width="1.5"/>
</g>
<defs>
<clipPath id="clip0_163_811">
<rect width="20" height="20" fill="white"/>
</clipPath>
</defs>
</svg>
