<svg width="21" height="22" viewBox="0 0 21 22" fill="none" xmlns="http://www.w3.org/2000/svg">
<path d="M10.4756 2.04883H3.10568C2.54722 2.04883 2.01163 2.27067 1.61674 2.66556C1.22185 3.06045 1 3.59604 1 4.1545V18.8942C1 19.4526 1.22185 19.9882 1.61674 20.3831C2.01163 20.778 2.54722 20.9999 3.10568 20.9999H17.8454C18.4039 20.9999 18.9395 20.778 19.3344 20.3831C19.7293 19.9882 19.9511 19.4526 19.9511 18.8942V11.5243" stroke="#3182FB" stroke-width="2" stroke-linecap="round" stroke-linejoin="round"/>
<path d="M15.9232 1.65415C16.3421 1.2353 16.9101 1 17.5025 1C18.0948 1 18.6629 1.2353 19.0817 1.65415C19.5006 2.07299 19.7359 2.64107 19.7359 3.2334C19.7359 3.82573 19.5006 4.39381 19.0817 4.81265L9.21136 14.683L5 15.7358L6.05284 11.5245L15.9232 1.65415Z" stroke="#3182FB" stroke-width="2" stroke-linecap="round" stroke-linejoin="round"/>
</svg>
