<svg width="30" height="30" viewBox="0 0 30 30" fill="none" xmlns="http://www.w3.org/2000/svg">
<path d="M15.162 6.48005C14.082 6.49205 13.296 6.91205 12.816 7.41605C12.174 8.08805 12.012 8.87405 12.012 8.87405L13.188 9.12005C13.188 9.12005 13.29 8.65205 13.68 8.24405C14.07 7.83605 14.688 7.46405 16.062 7.78205L16.332 6.61205C15.912 6.51605 15.522 6.47405 15.162 6.48005Z" fill="black"/>
<path d="M16.584 8.802L15.456 9.198C15.456 9.198 15.636 9.726 15.876 10.332C16.068 10.836 16.284 11.328 16.494 11.736C16.236 11.766 15.738 11.748 15.06 11.454L14.58 12.558C15.468 12.942 16.224 13.062 16.836 12.936C17.142 12.876 17.448 12.75 17.652 12.444C17.856 12.138 17.82 11.688 17.646 11.4C17.52 11.19 17.22 10.494 16.992 9.906C16.764 9.312 16.584 8.802 16.584 8.802Z" fill="black"/>
<path d="M21.696 15.5579L21.3 16.0079C20.718 16.6679 19.68 16.8059 19.674 16.8059L19.626 16.8119L19.614 16.7279L19.026 16.8119C19.026 16.8119 18.864 16.8359 18.612 16.8359C17.994 16.8359 16.794 16.7099 15.762 15.8699L15.294 15.4919L13.782 17.3579L14.244 17.7359C15.852 19.0439 17.676 19.2359 18.624 19.2359C18.954 19.2359 19.194 19.2119 19.314 19.1999L19.32 19.2419L19.908 19.1999C19.986 19.1939 21.84 19.0379 23.106 17.5979L23.502 17.1479L21.696 15.5579Z" fill="black"/>
<path d="M18.702 23.988C18.81 23.988 18.918 23.994 19.026 23.994C19.026 23.994 19.02 23.994 19.02 24H18.732L18.702 23.988Z" fill="black"/>
<path d="M28.29 23.91C28.26 23.478 28.08 23.244 27.99 23.136L27.984 23.124C27.888 22.998 27.798 22.908 27.72 22.83C27.576 22.692 27.402 22.56 27.18 22.398C26.856 22.164 26.424 21.882 25.866 21.54C25.614 21.384 25.416 21.27 25.248 21.168C25.506 20.736 25.806 20.16 26.124 19.38C26.838 17.61 27.636 14.658 27.354 10.668C27.102 7.14003 25.914 4.47003 23.814 2.72403C22.308 1.47003 20.388 0.744028 18.096 0.558028V0.510028H17.4C17.34 0.510028 17.292 0.516028 17.25 0.516028C17.238 0.516028 17.22 0.516028 17.208 0.516028C17.16 0.516028 17.112 0.516028 17.064 0.510028C16.98 0.510028 16.89 0.504028 16.8 0.504028C13.242 0.534028 10.44 1.10403 8.46603 2.20203C6.61203 3.24003 5.85603 4.63803 5.55003 5.71803C5.25003 5.91003 4.81203 6.26403 4.43403 6.91203C3.97203 7.69203 3.54603 9.11403 4.02003 11.532C3.32403 12.192 2.87403 13.08 2.76003 14.028C2.59203 15.42 2.99403 16.746 3.86403 17.676C4.71603 18.588 5.62803 18.936 6.25203 19.074C6.26403 19.074 6.27003 19.08 6.28203 19.08C6.43803 19.662 6.69003 20.418 7.05003 21.222C6.46803 21.552 5.62203 22.032 4.63203 22.602C3.77403 23.1 2.99403 23.562 2.43603 23.91C2.10603 24.114 1.86003 24.27 1.67403 24.402C1.55403 24.48 1.45803 24.552 1.37403 24.624L1.36203 24.636C1.32003 24.672 1.27203 24.72 1.20603 24.786C1.06203 24.918 0.894029 25.128 0.846029 25.554L0.780029 26.136L2.14203 29.496H27.474L27.678 28.452C27.684 28.416 27.846 27.588 28.008 26.64L28.026 26.532C28.176 25.536 28.332 24.606 28.29 23.91ZM24.732 14.226L24.726 14.274C24.57 15.774 24.234 17.166 23.724 18.426C23.46 19.086 23.196 19.59 22.962 19.974L22.908 19.938L22.518 20.55C22.506 20.568 21.498 22.116 19.194 22.116C16.518 22.116 14.19 20.814 13.536 20.118C12.846 19.392 12.672 18.408 12.672 18.402L12.564 17.73L10.026 18.108L10.122 18.786C10.134 18.858 10.38 20.526 11.658 21.888C11.898 22.146 12.198 22.398 12.54 22.644C12.534 22.65 12.534 22.656 12.528 22.656C11.7 22.554 11.004 22.284 10.458 21.852C10.062 21.54 9.91803 21.312 9.88803 21.252L9.78603 21.084C9.30603 20.304 8.97003 19.236 8.78403 18.498C9.07203 18.198 9.33003 17.826 9.55203 17.376L9.85803 16.758L7.61403 15.63L10.914 13.98L10.89 13.152V13.14C10.884 13.068 10.848 12.426 10.518 11.496C10.476 11.382 10.416 11.028 10.71 10.182C10.788 9.96603 10.878 9.75003 10.968 9.52203C11.16 9.04803 11.364 8.55603 11.46 8.03403C11.574 7.41603 11.508 6.79803 11.256 6.22203C11.508 5.82603 11.814 5.44803 12.168 5.09403C13.452 3.81003 15.138 3.13803 17.19 3.09603C19.254 3.15003 20.922 3.69003 22.152 4.71003C22.62 5.10003 23.034 5.56803 23.376 6.10203L23.802 7.03803C24.522 8.62803 25.26 11.154 24.732 14.226ZM5.31603 14.346C5.38203 13.806 5.63403 13.344 5.95803 13.164L5.98803 13.152L6.03003 13.128C6.49203 12.87 6.72603 12.84 6.81003 12.84C6.82203 12.84 6.83403 12.84 6.83403 12.84C6.84603 12.852 6.86403 12.876 6.88803 12.924C7.02603 13.158 7.09203 13.626 7.10403 13.83L7.12803 15.87L7.50603 15.684L7.24203 16.218C7.17003 16.356 7.09803 16.482 7.03203 16.578C6.98403 16.578 6.90003 16.572 6.77403 16.542C6.40803 16.464 6.06603 16.26 5.74203 15.912C5.41203 15.564 5.24403 14.946 5.31603 14.346Z" fill="black"/>
<path d="M20.622 5.03999C19.542 5.05199 18.756 5.47199 18.276 5.97599C17.634 6.64799 17.472 7.43399 17.472 7.43399L18.648 7.67999C18.648 7.67999 18.75 7.21199 19.14 6.80399C19.53 6.39599 20.148 6.02399 21.522 6.34199L21.792 5.17199C21.372 5.07599 20.982 5.03399 20.622 5.03999Z" fill="black"/>
<path d="M22.044 7.36206L20.916 7.75806C20.916 7.75806 21.096 8.28606 21.336 8.89206C21.528 9.39606 21.744 9.88806 21.954 10.2961C21.696 10.3261 21.198 10.3081 20.52 10.0141L20.04 11.1181C20.928 11.5021 21.684 11.6221 22.296 11.4961C22.602 11.4361 22.908 11.3101 23.112 11.0041C23.316 10.6981 23.28 10.2481 23.106 9.96006C22.98 9.75006 22.68 9.05406 22.452 8.46606C22.224 7.87206 22.044 7.36206 22.044 7.36206Z" fill="black"/>
</svg>
