<svg width="96" height="51" viewBox="0 0 96 51" fill="none" xmlns="http://www.w3.org/2000/svg">
<path d="M61.65 1.34998H34.35C33.75 1.34998 33.15 1.79998 33.15 2.54998V21C33.15 21.6 33.6 22.2 34.35 22.2H43.65L42.3 27.45C42.15 28.05 42.45 28.65 43.2 28.8C43.8 28.95 44.4 28.65 44.55 27.9L46.05 22.05H50.1L51.6 27.9C51.75 28.5 52.35 28.95 52.95 28.8C53.55 28.65 54 28.05 53.85 27.45L52.5 22.2H61.8C62.4 22.2 63 21.75 63 21V2.39998C62.7 1.79998 62.25 1.34998 61.65 1.34998ZM60.45 19.65H35.55V3.59998H60.45V19.65Z" fill="black"/>
<path d="M31.5312 44.0098H29.3691L29.3574 43.1016H31.3203C31.6445 43.1016 31.9277 43.0469 32.1699 42.9375C32.4121 42.8281 32.5996 42.6719 32.7324 42.4688C32.8691 42.2617 32.9375 42.0156 32.9375 41.7305C32.9375 41.418 32.877 41.1641 32.7559 40.9688C32.6387 40.7695 32.457 40.625 32.2109 40.5352C31.9688 40.4414 31.6602 40.3945 31.2852 40.3945H29.6211V48H28.4902V39.4688H31.2852C31.7227 39.4688 32.1133 39.5137 32.457 39.6035C32.8008 39.6895 33.0918 39.8262 33.3301 40.0137C33.5723 40.1973 33.7559 40.4316 33.8809 40.7168C34.0059 41.002 34.0684 41.3438 34.0684 41.7422C34.0684 42.0938 33.9785 42.4121 33.7988 42.6973C33.6191 42.9785 33.3691 43.209 33.0488 43.3887C32.7324 43.5684 32.3613 43.6836 31.9355 43.7344L31.5312 44.0098ZM31.4785 48H28.9238L29.5625 47.0801H31.4785C31.8379 47.0801 32.1426 47.0176 32.3926 46.8926C32.6465 46.7676 32.8398 46.5918 32.9727 46.3652C33.1055 46.1348 33.1719 45.8633 33.1719 45.5508C33.1719 45.2344 33.1152 44.9609 33.002 44.7305C32.8887 44.5 32.7109 44.3223 32.4688 44.1973C32.2266 44.0723 31.9141 44.0098 31.5312 44.0098H29.9199L29.9316 43.1016H32.1348L32.375 43.4297C32.7852 43.4648 33.1328 43.582 33.418 43.7812C33.7031 43.9766 33.9199 44.2266 34.0684 44.5312C34.2207 44.8359 34.2969 45.1719 34.2969 45.5391C34.2969 46.0703 34.1797 46.5195 33.9453 46.8867C33.7148 47.25 33.3887 47.5273 32.9668 47.7188C32.5449 47.9062 32.0488 48 31.4785 48ZM36.0156 44.9004V44.7656C36.0156 44.3086 36.082 43.8848 36.2148 43.4941C36.3477 43.0996 36.5391 42.7578 36.7891 42.4688C37.0391 42.1758 37.3418 41.9492 37.6973 41.7891C38.0527 41.625 38.4512 41.543 38.8926 41.543C39.3379 41.543 39.7383 41.625 40.0938 41.7891C40.4531 41.9492 40.7578 42.1758 41.0078 42.4688C41.2617 42.7578 41.4551 43.0996 41.5879 43.4941C41.7207 43.8848 41.7871 44.3086 41.7871 44.7656V44.9004C41.7871 45.3574 41.7207 45.7812 41.5879 46.1719C41.4551 46.5625 41.2617 46.9043 41.0078 47.1973C40.7578 47.4863 40.4551 47.7129 40.0996 47.877C39.748 48.0371 39.3496 48.1172 38.9043 48.1172C38.459 48.1172 38.0586 48.0371 37.7031 47.877C37.3477 47.7129 37.043 47.4863 36.7891 47.1973C36.5391 46.9043 36.3477 46.5625 36.2148 46.1719C36.082 45.7812 36.0156 45.3574 36.0156 44.9004ZM37.0996 44.7656V44.9004C37.0996 45.2168 37.1367 45.5156 37.2109 45.7969C37.2852 46.0742 37.3965 46.3203 37.5449 46.5352C37.6973 46.75 37.8867 46.9199 38.1133 47.0449C38.3398 47.166 38.6035 47.2266 38.9043 47.2266C39.2012 47.2266 39.4609 47.166 39.6836 47.0449C39.9102 46.9199 40.0977 46.75 40.2461 46.5352C40.3945 46.3203 40.5059 46.0742 40.5801 45.7969C40.6582 45.5156 40.6973 45.2168 40.6973 44.9004V44.7656C40.6973 44.4531 40.6582 44.1582 40.5801 43.8809C40.5059 43.5996 40.3926 43.3516 40.2402 43.1367C40.0918 42.918 39.9043 42.7461 39.6777 42.6211C39.4551 42.4961 39.1934 42.4336 38.8926 42.4336C38.5957 42.4336 38.334 42.4961 38.1074 42.6211C37.8848 42.7461 37.6973 42.918 37.5449 43.1367C37.3965 43.3516 37.2852 43.5996 37.2109 43.8809C37.1367 44.1582 37.0996 44.4531 37.0996 44.7656ZM47.3848 46.916V43.6523C47.3848 43.4023 47.334 43.1855 47.2324 43.002C47.1348 42.8145 46.9863 42.6699 46.7871 42.5684C46.5879 42.4668 46.3418 42.416 46.0488 42.416C45.7754 42.416 45.5352 42.4629 45.3281 42.5566C45.125 42.6504 44.9648 42.7734 44.8477 42.9258C44.7344 43.0781 44.6777 43.2422 44.6777 43.418H43.5938C43.5938 43.1914 43.6523 42.9668 43.7695 42.7441C43.8867 42.5215 44.0547 42.3203 44.2734 42.1406C44.4961 41.957 44.7617 41.8125 45.0703 41.707C45.3828 41.5977 45.7305 41.543 46.1133 41.543C46.5742 41.543 46.9805 41.6211 47.332 41.7773C47.6875 41.9336 47.9648 42.1699 48.1641 42.4863C48.3672 42.7988 48.4688 43.1914 48.4688 43.6641V46.6172C48.4688 46.8281 48.4863 47.0527 48.5215 47.291C48.5605 47.5293 48.6172 47.7344 48.6914 47.9062V48H47.5605C47.5059 47.875 47.4629 47.709 47.4316 47.502C47.4004 47.291 47.3848 47.0957 47.3848 46.916ZM47.5723 44.1562L47.584 44.918H46.4883C46.1797 44.918 45.9043 44.9434 45.6621 44.9941C45.4199 45.041 45.2168 45.1133 45.0527 45.2109C44.8887 45.3086 44.7637 45.4316 44.6777 45.5801C44.5918 45.7246 44.5488 45.8945 44.5488 46.0898C44.5488 46.2891 44.5938 46.4707 44.6836 46.6348C44.7734 46.7988 44.9082 46.9297 45.0879 47.0273C45.2715 47.1211 45.4961 47.168 45.7617 47.168C46.0938 47.168 46.3867 47.0977 46.6406 46.957C46.8945 46.8164 47.0957 46.6445 47.2441 46.4414C47.3965 46.2383 47.4785 46.041 47.4902 45.8496L47.9531 46.3711C47.9258 46.5352 47.8516 46.7168 47.7305 46.916C47.6094 47.1152 47.4473 47.3066 47.2441 47.4902C47.0449 47.6699 46.8066 47.8203 46.5293 47.9414C46.2559 48.0586 45.9473 48.1172 45.6035 48.1172C45.1738 48.1172 44.7969 48.0332 44.4727 47.8652C44.1523 47.6973 43.9023 47.4727 43.7227 47.1914C43.5469 46.9062 43.459 46.5879 43.459 46.2363C43.459 45.8965 43.5254 45.5977 43.6582 45.3398C43.791 45.0781 43.9824 44.8613 44.2324 44.6895C44.4824 44.5137 44.7832 44.3809 45.1348 44.291C45.4863 44.2012 45.8789 44.1562 46.3125 44.1562H47.5723ZM51.7578 42.6562V48H50.6738V41.6602H51.7285L51.7578 42.6562ZM53.7383 41.625L53.7324 42.6328C53.6426 42.6133 53.5566 42.6016 53.4746 42.5977C53.3965 42.5898 53.3066 42.5859 53.2051 42.5859C52.9551 42.5859 52.7344 42.625 52.543 42.7031C52.3516 42.7812 52.1895 42.8906 52.0566 43.0312C51.9238 43.1719 51.8184 43.3398 51.7402 43.5352C51.666 43.7266 51.6172 43.9375 51.5938 44.168L51.2891 44.3438C51.2891 43.9609 51.3262 43.6016 51.4004 43.2656C51.4785 42.9297 51.5977 42.6328 51.7578 42.375C51.918 42.1133 52.1211 41.9102 52.3672 41.7656C52.6172 41.6172 52.9141 41.543 53.2578 41.543C53.3359 41.543 53.4258 41.5527 53.5273 41.5723C53.6289 41.5879 53.6992 41.6055 53.7383 41.625ZM59.1191 46.7695V39H60.209V48H59.2129L59.1191 46.7695ZM54.8535 44.9004V44.7773C54.8535 44.293 54.9121 43.8535 55.0293 43.459C55.1504 43.0605 55.3203 42.7188 55.5391 42.4336C55.7617 42.1484 56.0254 41.9297 56.3301 41.7773C56.6387 41.6211 56.9824 41.543 57.3613 41.543C57.7598 41.543 58.1074 41.6133 58.4043 41.7539C58.7051 41.8906 58.959 42.0918 59.166 42.3574C59.377 42.6191 59.543 42.9355 59.6641 43.3066C59.7852 43.6777 59.8691 44.0977 59.916 44.5664V45.1055C59.873 45.5703 59.7891 45.9883 59.6641 46.3594C59.543 46.7305 59.377 47.0469 59.166 47.3086C58.959 47.5703 58.7051 47.7715 58.4043 47.9121C58.1035 48.0488 57.752 48.1172 57.3496 48.1172C56.9785 48.1172 56.6387 48.0371 56.3301 47.877C56.0254 47.7168 55.7617 47.4922 55.5391 47.2031C55.3203 46.9141 55.1504 46.5742 55.0293 46.1836C54.9121 45.7891 54.8535 45.3613 54.8535 44.9004ZM55.9434 44.7773V44.9004C55.9434 45.2168 55.9746 45.5137 56.0371 45.791C56.1035 46.0684 56.2051 46.3125 56.3418 46.5234C56.4785 46.7344 56.6523 46.9004 56.8633 47.0215C57.0742 47.1387 57.3262 47.1973 57.6191 47.1973C57.9785 47.1973 58.2734 47.1211 58.5039 46.9688C58.7383 46.8164 58.9258 46.6152 59.0664 46.3652C59.207 46.1152 59.3164 45.8438 59.3945 45.5508V44.1387C59.3477 43.9238 59.2793 43.7168 59.1895 43.5176C59.1035 43.3145 58.9902 43.1348 58.8496 42.9785C58.7129 42.8184 58.543 42.6914 58.3398 42.5977C58.1406 42.5039 57.9043 42.457 57.6309 42.457C57.334 42.457 57.0781 42.5195 56.8633 42.6445C56.6523 42.7656 56.4785 42.9336 56.3418 43.1484C56.2051 43.3594 56.1035 43.6055 56.0371 43.8867C55.9746 44.1641 55.9434 44.4609 55.9434 44.7773ZM66.0879 46.3184C66.0879 46.1621 66.0527 46.0176 65.9824 45.8848C65.916 45.748 65.7773 45.625 65.5664 45.5156C65.3594 45.4023 65.0469 45.3047 64.6289 45.2227C64.2773 45.1484 63.959 45.0605 63.6738 44.959C63.3926 44.8574 63.1523 44.7344 62.9531 44.5898C62.7578 44.4453 62.6074 44.2754 62.502 44.0801C62.3965 43.8848 62.3438 43.6562 62.3438 43.3945C62.3438 43.1445 62.3984 42.9082 62.5078 42.6855C62.6211 42.4629 62.7793 42.2656 62.9824 42.0938C63.1895 41.9219 63.4375 41.7871 63.7266 41.6895C64.0156 41.5918 64.3379 41.543 64.6934 41.543C65.2012 41.543 65.6348 41.6328 65.9941 41.8125C66.3535 41.9922 66.6289 42.2324 66.8203 42.5332C67.0117 42.8301 67.1074 43.1602 67.1074 43.5234H66.0234C66.0234 43.3477 65.9707 43.1777 65.8652 43.0137C65.7637 42.8457 65.6133 42.707 65.4141 42.5977C65.2188 42.4883 64.9785 42.4336 64.6934 42.4336C64.3926 42.4336 64.1484 42.4805 63.9609 42.5742C63.7773 42.6641 63.6426 42.7793 63.5566 42.9199C63.4746 43.0605 63.4336 43.209 63.4336 43.3652C63.4336 43.4824 63.4531 43.5879 63.4922 43.6816C63.5352 43.7715 63.6094 43.8555 63.7148 43.9336C63.8203 44.0078 63.9688 44.0781 64.1602 44.1445C64.3516 44.2109 64.5957 44.2773 64.8926 44.3438C65.4121 44.4609 65.8398 44.6016 66.1758 44.7656C66.5117 44.9297 66.7617 45.1309 66.9258 45.3691C67.0898 45.6074 67.1719 45.8965 67.1719 46.2363C67.1719 46.5137 67.1133 46.7676 66.9961 46.998C66.8828 47.2285 66.7168 47.4277 66.498 47.5957C66.2832 47.7598 66.0254 47.8887 65.7246 47.9824C65.4277 48.0723 65.0938 48.1172 64.7227 48.1172C64.1641 48.1172 63.6914 48.0176 63.3047 47.8184C62.918 47.6191 62.625 47.3613 62.4258 47.0449C62.2266 46.7285 62.127 46.3945 62.127 46.043H63.2168C63.2324 46.3398 63.3184 46.5762 63.4746 46.752C63.6309 46.9238 63.8223 47.0469 64.0488 47.1211C64.2754 47.1914 64.5 47.2266 64.7227 47.2266C65.0195 47.2266 65.2676 47.1875 65.4668 47.1094C65.6699 47.0312 65.8242 46.9238 65.9297 46.7871C66.0352 46.6504 66.0879 46.4941 66.0879 46.3184Z" fill="black" fill-opacity="0.8"/>
</svg>
