<svg width="30" height="31" viewBox="0 0 30 31" fill="none" xmlns="http://www.w3.org/2000/svg">
<path d="M15.1748 25.5244V15.9771" stroke="black" stroke-linecap="round" stroke-linejoin="round"/>
<path d="M24.0748 22.756C25.1094 22.1918 25.9268 21.2993 26.3978 20.2191C26.8689 19.139 26.9668 17.9326 26.6761 16.7906C26.3854 15.6486 25.7228 14.6359 24.7926 13.9124C23.8624 13.1888 22.7179 12.7957 21.5394 12.7949H20.2028C19.8818 11.5529 19.2833 10.3999 18.4524 9.42256C17.6216 8.44519 16.58 7.66889 15.4059 7.15201C14.2319 6.63514 12.9559 6.39114 11.674 6.43837C10.3921 6.48561 9.13757 6.82284 8.00474 7.42471C6.8719 8.02657 5.89027 8.87742 5.1336 9.91327C4.37694 10.9491 3.86494 12.1431 3.63612 13.4053C3.40729 14.6675 3.46757 15.9651 3.81245 17.2006C4.15734 18.4363 4.77782 19.5776 5.62727 20.5388" stroke="black" stroke-linecap="round" stroke-linejoin="round"/>
<path d="M10.9316 21.281L15.1749 25.5243L19.4181 21.281" stroke="black" stroke-linecap="round" stroke-linejoin="round"/>
</svg>
