<svg width="30" height="27" viewBox="0 0 30 27" fill="none" xmlns="http://www.w3.org/2000/svg">
<path d="M19.2468 18.5499L15.0047 14.3079L10.7627 18.5499" stroke="black" stroke-linecap="round" stroke-linejoin="round"/>
<path d="M15.0049 14.3079V23.8524" stroke="black" stroke-linecap="round" stroke-linejoin="round"/>
<path d="M23.9018 21.0845C24.9363 20.5205 25.7533 19.6282 26.2243 18.5484C26.6952 17.4685 26.793 16.2626 26.5025 15.1209C26.2118 13.9792 25.5493 12.9668 24.6195 12.2435C23.6897 11.5202 22.5453 11.1271 21.3673 11.1263H20.031C19.71 9.88472 19.1118 8.73204 18.2812 7.75496C17.4505 6.77786 16.4093 6.00177 15.2355 5.48506C14.0618 4.96834 12.7863 4.72441 11.5047 4.77162C10.2231 4.81884 8.96897 5.15597 7.83646 5.75767C6.70396 6.35936 5.72259 7.20997 4.96614 8.24552C4.20969 9.28109 3.69784 10.4747 3.46909 11.7365C3.24032 12.9984 3.30059 14.2957 3.64537 15.5309C3.99016 16.7661 4.61047 17.907 5.45967 18.868" stroke="black" stroke-linecap="round" stroke-linejoin="round"/>
<path d="M19.2468 18.5499L15.0047 14.3079L10.7627 18.5499" stroke="black" stroke-linecap="round" stroke-linejoin="round"/>
</svg>
