<svg width="30" height="30" viewBox="0 0 30 30" fill="none" xmlns="http://www.w3.org/2000/svg">
<path d="M13.1633 30.0001C12.8571 30.0001 12.551 29.6956 12.551 29.391V24.3656C12.551 24.061 12.8571 23.7565 13.1633 23.7565C13.4694 23.7565 13.7755 24.061 13.7755 24.3656V29.391C13.7755 29.6956 13.4694 30.0001 13.1633 30.0001Z" fill="black"/>
<path d="M16.8367 30.0001C16.5306 30.0001 16.2245 29.6956 16.2245 29.391V24.3656C16.2245 24.061 16.5306 23.7565 16.8367 23.7565C17.1429 23.7565 17.449 24.061 17.449 24.3656V29.391C17.449 29.6956 17.2959 30.0001 16.8367 30.0001Z" fill="black"/>
<path d="M20.6633 30H9.33673C9.03061 30 8.72449 29.6954 8.72449 29.3909C8.72449 29.0863 9.03061 28.7817 9.33673 28.7817H20.6633C20.9694 28.7817 21.2755 29.0863 21.2755 29.3909C21.2755 29.6954 20.9694 30 20.6633 30Z" fill="black"/>
<path d="M28.1633 24.9746H1.83673C0.765306 24.9746 0 24.2131 0 23.1472V7.00502C0 5.93903 0.765306 5.17761 1.83673 5.17761H6.88776C7.19388 5.17761 7.5 5.48218 7.5 5.78675C7.5 6.09132 7.19388 6.39589 6.88776 6.39589H1.83673C1.53061 6.39589 1.22449 6.70045 1.22449 7.00502V23.1472C1.22449 23.4517 1.53061 23.7563 1.83673 23.7563H28.1633C28.4694 23.7563 28.7755 23.4517 28.7755 23.1472V7.00502C28.7755 6.70045 28.4694 6.39589 28.1633 6.39589H26.9388C26.6327 6.39589 26.3265 6.09132 26.3265 5.78675C26.3265 5.48218 26.6327 5.17761 26.9388 5.17761H28.1633C29.2347 5.17761 30 5.93903 30 7.00502V23.1472C30 24.2131 29.2347 24.9746 28.1633 24.9746Z" fill="black"/>
<path d="M15.9184 14.9239C15.7653 14.9239 15.6123 14.9239 15.4592 14.7716L11.0204 10.203C10.7143 9.89848 10.7143 9.59391 11.0204 9.28934L14.6939 5.17766C17.2959 2.13198 21.4286 0.152284 24.949 0C25.1021 0 25.2551 0 25.4082 0.152284C25.5612 0.304568 25.5612 0.456853 25.5612 0.609137C25.5612 4.11167 23.4184 8.22335 20.3572 10.9645L16.2245 14.6193C16.2245 14.7716 16.0714 14.9239 15.9184 14.9239ZM12.2449 9.74619L15.9184 13.401L19.5919 10.0508C22.1939 7.91878 24.0306 4.41624 24.3368 1.37056C21.2755 1.67513 17.9082 3.50254 15.6123 6.09137L12.2449 9.74619Z" fill="black"/>
<path d="M17.602 17.8174H17.449C17.2959 17.8174 16.9898 17.5128 16.9898 17.3605L16.0714 13.7057C15.9184 13.4012 16.2245 13.0966 16.5306 12.9443C16.8367 12.792 17.1428 13.0966 17.2959 13.4012L17.9081 15.8377C18.9796 14.1626 19.2857 12.0306 19.2857 10.66C19.2857 10.3555 19.5918 10.0509 19.8979 10.0509C20.2041 10.0509 20.5102 10.3555 20.5102 10.66C20.5102 13.5534 19.5918 15.99 18.0612 17.5128C17.9081 17.8174 17.7551 17.8174 17.602 17.8174Z" fill="black"/>
<path d="M12.2449 9.59386C12.0919 9.59386 12.0919 9.59386 12.2449 9.59386L8.26534 8.68015C8.11227 8.68015 7.80615 8.52787 7.80615 8.2233C7.80615 8.07101 7.80615 7.76644 7.95921 7.61416C9.48983 6.09132 11.9388 5.17761 14.847 5.17761C15.1531 5.17761 15.4592 5.48218 15.4592 5.78675C15.4592 6.09132 15.1531 6.39589 14.847 6.39589C13.6225 6.39589 11.3266 6.70045 9.64289 7.76644L12.0919 8.37558C12.398 8.52787 12.7041 8.83243 12.551 9.137C12.7041 9.44157 12.398 9.59386 12.2449 9.59386Z" fill="black"/>
<path d="M7.5 18.8834C7.34694 18.8834 7.19388 18.8834 7.04082 18.7311C6.88776 18.5788 6.88776 18.2743 6.88776 18.122C7.04082 17.3606 8.11225 14.0103 9.03061 13.0966C10.102 12.0306 11.6327 12.0306 12.7041 12.9443C13.7755 14.0103 13.7755 15.5332 12.7041 16.5991C11.9388 17.3606 8.41837 18.5788 7.65306 18.7311L7.5 18.8834ZM10.8673 13.5535C10.5612 13.5535 10.102 13.7057 9.94898 13.858C9.4898 14.3149 8.87755 15.8377 8.41837 17.2083C9.79592 16.7514 11.4796 16.1423 11.7857 15.8377C12.2449 15.3809 12.2449 14.4672 11.7857 14.0103C11.4796 13.7057 11.1735 13.5535 10.8673 13.5535Z" fill="black"/>
</svg>
