<svg width="96" height="71" viewBox="0 0 96 71" fill="none" xmlns="http://www.w3.org/2000/svg">
<g clip-path="url(#clip0_118_293)">
<path d="M36.9517 35.3824C36.8783 35.3451 36.809 35.3002 36.7448 35.2486C36.1146 34.6315 35.4816 34.0178 34.8686 33.3869C34.7962 33.3124 34.7907 33.1111 34.8321 33.0001C35.0072 32.5174 35.2168 32.0423 35.4044 31.561C35.6519 30.9274 35.4044 30.2923 34.779 30.0144C34.2963 29.8 33.7985 29.6235 33.3179 29.4063C33.2082 29.3559 33.0703 29.2111 33.0676 29.107C33.0448 28.2148 33.0441 27.3225 33.0558 26.4303C33.0558 26.3406 33.1675 26.2117 33.2586 26.1696C33.6971 25.9703 34.1474 25.798 34.5914 25.6104C35.3947 25.2705 35.645 24.6637 35.3134 23.8528C35.1306 23.4074 34.9272 22.9695 34.7528 22.5206C34.7155 22.4262 34.7176 22.2565 34.7776 22.1931C35.4097 21.5312 36.0532 20.8796 36.7083 20.2383C36.7655 20.1824 36.9227 20.1783 37.0096 20.2114C37.4923 20.3976 37.9632 20.6079 38.4424 20.7989C39.1161 21.0671 39.7525 20.8203 40.0463 20.1631C40.2614 19.6805 40.4386 19.184 40.6537 18.702C40.6979 18.6034 40.831 18.4821 40.9261 18.4793C41.8184 18.4545 42.712 18.4455 43.6042 18.4572C43.7063 18.4572 43.849 18.5952 43.8987 18.7048C44.1097 19.1633 44.2827 19.6384 44.4882 20.0997C44.793 20.7851 45.4536 21.034 46.1472 20.7396C46.612 20.5438 47.0726 20.3362 47.5428 20.1535C47.6366 20.1176 47.8055 20.1259 47.8697 20.1873C48.5243 20.812 49.1678 21.447 49.8003 22.0924C49.8624 22.1566 49.8769 22.3241 49.8424 22.4165C49.6638 22.8882 49.4542 23.3481 49.2694 23.8176C48.9764 24.5637 49.2522 25.1967 49.992 25.4953C50.4492 25.6807 50.9119 25.8545 51.3614 26.0558C51.46 26.1 51.5793 26.2379 51.5821 26.3351C51.6097 27.2053 51.6145 28.0755 51.6228 28.9464C51.6228 29.1532 51.5138 29.2546 51.3111 29.3277C50.8484 29.4966 50.3982 29.7007 49.9458 29.8979C49.2949 30.182 49.026 30.8363 49.2949 31.4969C49.4894 31.9748 49.7086 32.4429 49.8969 32.9236C49.9362 33.0249 49.9279 33.2083 49.8624 33.2787C49.257 33.9199 48.6357 34.5446 48.0165 35.1728C47.8924 35.299 47.7676 35.3107 47.5897 35.2293C47.1215 35.0142 46.6402 34.8253 46.1589 34.6398C45.5101 34.3902 44.8723 34.6625 44.5978 35.3045C44.3951 35.7789 44.2159 36.2636 44.0055 36.7353C43.96 36.8373 43.8297 36.969 43.7353 36.9725C42.832 36.9987 41.9282 37.0072 41.024 36.998C40.9316 36.998 40.8048 36.8539 40.7558 36.7484C40.5448 36.2898 40.36 35.8196 40.1587 35.3569C39.8773 34.7087 39.2623 34.4343 38.6003 34.6832C38.1066 34.8687 37.6267 35.0907 37.1413 35.2969C37.0779 35.3217 37.0172 35.3521 36.9517 35.3824ZM42.3128 32.867C43.6763 32.8702 44.9852 32.3316 45.9516 31.3697C46.918 30.4079 47.4627 29.1015 47.4659 27.738C47.4691 26.3744 46.9306 25.0655 45.9687 24.0991C45.0068 23.1327 43.7004 22.588 42.3369 22.5848C39.5098 22.5765 37.1882 24.8768 37.1785 27.6969C37.1759 28.3736 37.3066 29.0441 37.5633 29.6703C37.8199 30.2964 38.1974 30.8658 38.6743 31.3459C39.1511 31.8261 39.7178 32.2075 40.3421 32.4685C40.9665 32.7295 41.6361 32.8649 42.3128 32.867Z" fill="black"/>
<path d="M53.2059 29.1229C53.2059 28.5024 53.1956 27.897 53.2197 27.2943C53.2197 27.2254 53.4135 27.1302 53.5293 27.1081C55.2 26.7961 56.7488 26.0194 57.9981 24.8672C59.653 23.3502 60.6466 21.474 60.921 19.2461C61.4727 14.7828 58.7497 10.636 54.4457 9.3321C49.7376 7.90547 44.6861 10.5512 43.1512 15.2558C43.0064 15.7006 42.9271 16.1667 42.8023 16.619C42.7775 16.708 42.6844 16.8445 42.6196 16.8466C42.0273 16.8645 41.4336 16.8569 40.842 16.8569C41.0357 12.9583 44.4675 7.74412 50.6133 7.06907C56.8983 6.37954 62.4559 10.9484 62.9193 17.2996C63.3806 23.6164 58.6808 28.4948 53.2059 29.1229Z" fill="black"/>
<path d="M51.9862 16.1204C52.3737 16.2714 52.7585 16.4279 53.1487 16.5699C53.3239 16.6334 53.5142 16.7216 53.6886 16.7078C55.0125 16.5886 56.3344 16.4479 57.6569 16.3093C57.9106 16.2824 58.1706 16.2872 58.2837 16.541C58.3164 16.6224 58.3318 16.7097 58.3291 16.7974C58.3264 16.8851 58.3055 16.9713 58.2678 17.0505C58.1844 17.1884 57.9851 17.2719 57.8203 17.3415C56.6274 17.8456 55.4269 18.3324 54.2382 18.8454C54.0599 18.9302 53.9126 19.0685 53.8169 19.2412C53.5983 19.6551 53.2481 19.9843 52.8216 20.177C52.3951 20.3697 51.9165 20.4147 51.4615 20.3051C51.0051 20.1989 50.5989 19.9396 50.3103 19.5704C50.0218 19.2012 49.8684 18.7443 49.8755 18.2758C49.8804 17.3105 50.5258 16.4734 51.4408 16.2652C51.6099 16.2349 51.7804 16.2132 51.9517 16.2003L51.9862 16.1204Z" fill="black"/>
</g>
<path d="M15.6367 51.6543H13.3574V50.7344H15.6367C16.0781 50.7344 16.4355 50.6641 16.709 50.5234C16.9824 50.3828 17.1816 50.1875 17.3066 49.9375C17.4355 49.6875 17.5 49.4023 17.5 49.082C17.5 48.7891 17.4355 48.5137 17.3066 48.2559C17.1816 47.998 16.9824 47.791 16.709 47.6348C16.4355 47.4746 16.0781 47.3945 15.6367 47.3945H13.6211V55H12.4902V46.4688H15.6367C16.2812 46.4688 16.8262 46.5801 17.2715 46.8027C17.7168 47.0254 18.0547 47.334 18.2852 47.7285C18.5156 48.1191 18.6309 48.5664 18.6309 49.0703C18.6309 49.6172 18.5156 50.084 18.2852 50.4707C18.0547 50.8574 17.7168 51.1523 17.2715 51.3555C16.8262 51.5547 16.2812 51.6543 15.6367 51.6543ZM21.4805 49.6562V55H20.3965V48.6602H21.4512L21.4805 49.6562ZM23.4609 48.625L23.4551 49.6328C23.3652 49.6133 23.2793 49.6016 23.1973 49.5977C23.1191 49.5898 23.0293 49.5859 22.9277 49.5859C22.6777 49.5859 22.457 49.625 22.2656 49.7031C22.0742 49.7812 21.9121 49.8906 21.7793 50.0312C21.6465 50.1719 21.541 50.3398 21.4629 50.5352C21.3887 50.7266 21.3398 50.9375 21.3164 51.168L21.0117 51.3438C21.0117 50.9609 21.0488 50.6016 21.123 50.2656C21.2012 49.9297 21.3203 49.6328 21.4805 49.375C21.6406 49.1133 21.8438 48.9102 22.0898 48.7656C22.3398 48.6172 22.6367 48.543 22.9805 48.543C23.0586 48.543 23.1484 48.5527 23.25 48.5723C23.3516 48.5879 23.4219 48.6055 23.4609 48.625ZM24.5586 51.9004V51.7656C24.5586 51.3086 24.625 50.8848 24.7578 50.4941C24.8906 50.0996 25.082 49.7578 25.332 49.4688C25.582 49.1758 25.8848 48.9492 26.2402 48.7891C26.5957 48.625 26.9941 48.543 27.4355 48.543C27.8809 48.543 28.2812 48.625 28.6367 48.7891C28.9961 48.9492 29.3008 49.1758 29.5508 49.4688C29.8047 49.7578 29.998 50.0996 30.1309 50.4941C30.2637 50.8848 30.3301 51.3086 30.3301 51.7656V51.9004C30.3301 52.3574 30.2637 52.7812 30.1309 53.1719C29.998 53.5625 29.8047 53.9043 29.5508 54.1973C29.3008 54.4863 28.998 54.7129 28.6426 54.877C28.291 55.0371 27.8926 55.1172 27.4473 55.1172C27.002 55.1172 26.6016 55.0371 26.2461 54.877C25.8906 54.7129 25.5859 54.4863 25.332 54.1973C25.082 53.9043 24.8906 53.5625 24.7578 53.1719C24.625 52.7812 24.5586 52.3574 24.5586 51.9004ZM25.6426 51.7656V51.9004C25.6426 52.2168 25.6797 52.5156 25.7539 52.7969C25.8281 53.0742 25.9395 53.3203 26.0879 53.5352C26.2402 53.75 26.4297 53.9199 26.6562 54.0449C26.8828 54.166 27.1465 54.2266 27.4473 54.2266C27.7441 54.2266 28.0039 54.166 28.2266 54.0449C28.4531 53.9199 28.6406 53.75 28.7891 53.5352C28.9375 53.3203 29.0488 53.0742 29.123 52.7969C29.2012 52.5156 29.2402 52.2168 29.2402 51.9004V51.7656C29.2402 51.4531 29.2012 51.1582 29.123 50.8809C29.0488 50.5996 28.9355 50.3516 28.7832 50.1367C28.6348 49.918 28.4473 49.7461 28.2207 49.6211C27.998 49.4961 27.7363 49.4336 27.4355 49.4336C27.1387 49.4336 26.877 49.4961 26.6504 49.6211C26.4277 49.7461 26.2402 49.918 26.0879 50.1367C25.9395 50.3516 25.8281 50.5996 25.7539 50.8809C25.6797 51.1582 25.6426 51.4531 25.6426 51.7656ZM36.1855 53.7695V46H37.2754V55H36.2793L36.1855 53.7695ZM31.9199 51.9004V51.7773C31.9199 51.293 31.9785 50.8535 32.0957 50.459C32.2168 50.0605 32.3867 49.7188 32.6055 49.4336C32.8281 49.1484 33.0918 48.9297 33.3965 48.7773C33.7051 48.6211 34.0488 48.543 34.4277 48.543C34.8262 48.543 35.1738 48.6133 35.4707 48.7539C35.7715 48.8906 36.0254 49.0918 36.2324 49.3574C36.4434 49.6191 36.6094 49.9355 36.7305 50.3066C36.8516 50.6777 36.9355 51.0977 36.9824 51.5664V52.1055C36.9395 52.5703 36.8555 52.9883 36.7305 53.3594C36.6094 53.7305 36.4434 54.0469 36.2324 54.3086C36.0254 54.5703 35.7715 54.7715 35.4707 54.9121C35.1699 55.0488 34.8184 55.1172 34.416 55.1172C34.0449 55.1172 33.7051 55.0371 33.3965 54.877C33.0918 54.7168 32.8281 54.4922 32.6055 54.2031C32.3867 53.9141 32.2168 53.5742 32.0957 53.1836C31.9785 52.7891 31.9199 52.3613 31.9199 51.9004ZM33.0098 51.7773V51.9004C33.0098 52.2168 33.041 52.5137 33.1035 52.791C33.1699 53.0684 33.2715 53.3125 33.4082 53.5234C33.5449 53.7344 33.7188 53.9004 33.9297 54.0215C34.1406 54.1387 34.3926 54.1973 34.6855 54.1973C35.0449 54.1973 35.3398 54.1211 35.5703 53.9688C35.8047 53.8164 35.9922 53.6152 36.1328 53.3652C36.2734 53.1152 36.3828 52.8438 36.4609 52.5508V51.1387C36.4141 50.9238 36.3457 50.7168 36.2559 50.5176C36.1699 50.3145 36.0566 50.1348 35.916 49.9785C35.7793 49.8184 35.6094 49.6914 35.4062 49.5977C35.207 49.5039 34.9707 49.457 34.6973 49.457C34.4004 49.457 34.1445 49.5195 33.9297 49.6445C33.7188 49.7656 33.5449 49.9336 33.4082 50.1484C33.2715 50.3594 33.1699 50.6055 33.1035 50.8867C33.041 51.1641 33.0098 51.4609 33.0098 51.7773ZM43.3418 53.5352V48.6602H44.4316V55H43.3945L43.3418 53.5352ZM43.5469 52.1992L43.998 52.1875C43.998 52.6094 43.9531 53 43.8633 53.3594C43.7773 53.7148 43.6367 54.0234 43.4414 54.2852C43.2461 54.5469 42.9902 54.752 42.6738 54.9004C42.3574 55.0449 41.9727 55.1172 41.5195 55.1172C41.2109 55.1172 40.9277 55.0723 40.6699 54.9824C40.416 54.8926 40.1973 54.7539 40.0137 54.5664C39.8301 54.3789 39.6875 54.1348 39.5859 53.834C39.4883 53.5332 39.4395 53.1719 39.4395 52.75V48.6602H40.5234V52.7617C40.5234 53.0469 40.5547 53.2832 40.6172 53.4707C40.6836 53.6543 40.7715 53.8008 40.8809 53.9102C40.9941 54.0156 41.1191 54.0898 41.2559 54.1328C41.3965 54.1758 41.541 54.1973 41.6895 54.1973C42.1504 54.1973 42.5156 54.1094 42.7852 53.9336C43.0547 53.7539 43.248 53.5137 43.3652 53.2129C43.4863 52.9082 43.5469 52.5703 43.5469 52.1992ZM49.1211 54.2266C49.3789 54.2266 49.6172 54.1738 49.8359 54.0684C50.0547 53.9629 50.2344 53.8184 50.375 53.6348C50.5156 53.4473 50.5957 53.2344 50.6152 52.9961H51.6465C51.627 53.3711 51.5 53.7207 51.2656 54.0449C51.0352 54.3652 50.7324 54.625 50.3574 54.8242C49.9824 55.0195 49.5703 55.1172 49.1211 55.1172C48.6445 55.1172 48.2285 55.0332 47.873 54.8652C47.5215 54.6973 47.2285 54.4668 46.9941 54.1738C46.7637 53.8809 46.5898 53.5449 46.4727 53.166C46.3594 52.7832 46.3027 52.3789 46.3027 51.9531V51.707C46.3027 51.2812 46.3594 50.8789 46.4727 50.5C46.5898 50.1172 46.7637 49.7793 46.9941 49.4863C47.2285 49.1934 47.5215 48.9629 47.873 48.7949C48.2285 48.627 48.6445 48.543 49.1211 48.543C49.6172 48.543 50.0508 48.6445 50.4219 48.8477C50.793 49.0469 51.084 49.3203 51.2949 49.668C51.5098 50.0117 51.627 50.4023 51.6465 50.8398H50.6152C50.5957 50.5781 50.5215 50.3418 50.3926 50.1309C50.2676 49.9199 50.0957 49.752 49.877 49.627C49.6621 49.498 49.4102 49.4336 49.1211 49.4336C48.7891 49.4336 48.5098 49.5 48.2832 49.6328C48.0605 49.7617 47.8828 49.9375 47.75 50.1602C47.6211 50.3789 47.5273 50.623 47.4688 50.8926C47.4141 51.1582 47.3867 51.4297 47.3867 51.707V51.9531C47.3867 52.2305 47.4141 52.5039 47.4688 52.7734C47.5234 53.043 47.6152 53.2871 47.7441 53.5059C47.877 53.7246 48.0547 53.9004 48.2773 54.0332C48.5039 54.1621 48.7852 54.2266 49.1211 54.2266ZM56.0195 48.6602V49.4922H52.5918V48.6602H56.0195ZM53.752 47.1191H54.8359V53.4297C54.8359 53.6445 54.8691 53.8066 54.9355 53.916C55.002 54.0254 55.0879 54.0977 55.1934 54.1328C55.2988 54.168 55.4121 54.1855 55.5332 54.1855C55.623 54.1855 55.7168 54.1777 55.8145 54.1621C55.916 54.1426 55.9922 54.127 56.043 54.1152L56.0488 55C55.9629 55.0273 55.8496 55.0527 55.709 55.0762C55.5723 55.1035 55.4062 55.1172 55.2109 55.1172C54.9453 55.1172 54.7012 55.0645 54.4785 54.959C54.2559 54.8535 54.0781 54.6777 53.9453 54.4316C53.8164 54.1816 53.752 53.8457 53.752 53.4238V47.1191ZM58.9688 48.6602V55H57.8789V48.6602H58.9688ZM57.7969 46.9785C57.7969 46.8027 57.8496 46.6543 57.9551 46.5332C58.0645 46.4121 58.2246 46.3516 58.4355 46.3516C58.6426 46.3516 58.8008 46.4121 58.9102 46.5332C59.0234 46.6543 59.0801 46.8027 59.0801 46.9785C59.0801 47.1465 59.0234 47.291 58.9102 47.4121C58.8008 47.5293 58.6426 47.5879 58.4355 47.5879C58.2246 47.5879 58.0645 47.5293 57.9551 47.4121C57.8496 47.291 57.7969 47.1465 57.7969 46.9785ZM63.1367 54.0215L64.8711 48.6602H65.9785L63.6992 55H62.9727L63.1367 54.0215ZM61.6895 48.6602L63.4766 54.0508L63.5996 55H62.873L60.5762 48.6602H61.6895ZM68.6992 48.6602V55H67.6094V48.6602H68.6992ZM67.5273 46.9785C67.5273 46.8027 67.5801 46.6543 67.6855 46.5332C67.7949 46.4121 67.9551 46.3516 68.166 46.3516C68.373 46.3516 68.5312 46.4121 68.6406 46.5332C68.7539 46.6543 68.8105 46.8027 68.8105 46.9785C68.8105 47.1465 68.7539 47.291 68.6406 47.4121C68.5312 47.5293 68.373 47.5879 68.166 47.5879C67.9551 47.5879 67.7949 47.5293 67.6855 47.4121C67.5801 47.291 67.5273 47.1465 67.5273 46.9785ZM73.5938 48.6602V49.4922H70.166V48.6602H73.5938ZM71.3262 47.1191H72.4102V53.4297C72.4102 53.6445 72.4434 53.8066 72.5098 53.916C72.5762 54.0254 72.6621 54.0977 72.7676 54.1328C72.873 54.168 72.9863 54.1855 73.1074 54.1855C73.1973 54.1855 73.291 54.1777 73.3887 54.1621C73.4902 54.1426 73.5664 54.127 73.6172 54.1152L73.623 55C73.5371 55.0273 73.4238 55.0527 73.2832 55.0762C73.1465 55.1035 72.9805 55.1172 72.7852 55.1172C72.5195 55.1172 72.2754 55.0645 72.0527 54.959C71.8301 54.8535 71.6523 54.6777 71.5195 54.4316C71.3906 54.1816 71.3262 53.8457 71.3262 53.4238V47.1191ZM77.1465 54.3438L78.9102 48.6602H80.0703L77.5273 55.9785C77.4688 56.1348 77.3906 56.3027 77.293 56.4824C77.1992 56.666 77.0781 56.8398 76.9297 57.0039C76.7812 57.168 76.6016 57.3008 76.3906 57.4023C76.1836 57.5078 75.9355 57.5605 75.6465 57.5605C75.5605 57.5605 75.4512 57.5488 75.3184 57.5254C75.1855 57.502 75.0918 57.4824 75.0371 57.4668L75.0312 56.5879C75.0625 56.5918 75.1113 56.5957 75.1777 56.5996C75.248 56.6074 75.2969 56.6113 75.3242 56.6113C75.5703 56.6113 75.7793 56.5781 75.9512 56.5117C76.123 56.4492 76.2676 56.3418 76.3848 56.1895C76.5059 56.041 76.6094 55.8359 76.6953 55.5742L77.1465 54.3438ZM75.8516 48.6602L77.498 53.582L77.7793 54.7246L77 55.123L74.668 48.6602H75.8516Z" fill="black" fill-opacity="0.8"/>
<defs>
<clipPath id="clip0_118_293">
<rect width="30" height="30" fill="white" transform="translate(33 7)"/>
</clipPath>
</defs>
</svg>
