<svg width="96" height="64" viewBox="0 0 96 64" fill="none" xmlns="http://www.w3.org/2000/svg">
<g clip-path="url(#clip0_118_248)">
<path d="M36.9517 35.3824C36.8783 35.3451 36.809 35.3002 36.7448 35.2486C36.1146 34.6315 35.4816 34.0178 34.8686 33.3869C34.7962 33.3124 34.7907 33.1111 34.8321 33.0001C35.0072 32.5174 35.2168 32.0423 35.4044 31.561C35.6519 30.9274 35.4044 30.2923 34.779 30.0144C34.2963 29.8 33.7985 29.6235 33.3179 29.4063C33.2082 29.3559 33.0703 29.2111 33.0676 29.107C33.0448 28.2148 33.0441 27.3225 33.0558 26.4303C33.0558 26.3406 33.1675 26.2117 33.2586 26.1696C33.6971 25.9703 34.1474 25.798 34.5914 25.6104C35.3947 25.2705 35.645 24.6637 35.3134 23.8528C35.1306 23.4074 34.9272 22.9695 34.7528 22.5206C34.7155 22.4262 34.7176 22.2565 34.7776 22.1931C35.4097 21.5312 36.0532 20.8796 36.7083 20.2383C36.7655 20.1824 36.9227 20.1783 37.0096 20.2114C37.4923 20.3976 37.9632 20.6079 38.4424 20.7989C39.1161 21.0671 39.7525 20.8203 40.0463 20.1631C40.2614 19.6805 40.4386 19.184 40.6537 18.702C40.6979 18.6034 40.831 18.4821 40.9261 18.4793C41.8184 18.4545 42.712 18.4455 43.6042 18.4572C43.7063 18.4572 43.849 18.5952 43.8987 18.7048C44.1097 19.1633 44.2827 19.6384 44.4882 20.0997C44.793 20.7851 45.4536 21.034 46.1472 20.7396C46.612 20.5438 47.0726 20.3362 47.5428 20.1535C47.6366 20.1176 47.8055 20.1259 47.8697 20.1873C48.5243 20.812 49.1678 21.447 49.8003 22.0924C49.8624 22.1566 49.8769 22.3241 49.8424 22.4165C49.6638 22.8882 49.4542 23.3481 49.2694 23.8176C48.9764 24.5637 49.2522 25.1967 49.992 25.4953C50.4492 25.6807 50.9119 25.8545 51.3614 26.0558C51.46 26.1 51.5793 26.2379 51.5821 26.3351C51.6097 27.2053 51.6145 28.0755 51.6228 28.9464C51.6228 29.1532 51.5138 29.2546 51.3111 29.3277C50.8484 29.4966 50.3982 29.7007 49.9458 29.8979C49.2949 30.182 49.026 30.8363 49.2949 31.4969C49.4894 31.9748 49.7086 32.4429 49.8969 32.9236C49.9362 33.0249 49.9279 33.2083 49.8624 33.2787C49.257 33.9199 48.6357 34.5446 48.0165 35.1728C47.8924 35.299 47.7676 35.3107 47.5897 35.2293C47.1215 35.0142 46.6402 34.8253 46.1589 34.6398C45.5101 34.3902 44.8723 34.6625 44.5978 35.3045C44.3951 35.7789 44.2159 36.2636 44.0055 36.7353C43.96 36.8373 43.8297 36.969 43.7353 36.9725C42.832 36.9987 41.9282 37.0072 41.024 36.998C40.9316 36.998 40.8048 36.8539 40.7558 36.7484C40.5448 36.2898 40.36 35.8196 40.1587 35.3569C39.8773 34.7087 39.2623 34.4343 38.6003 34.6832C38.1066 34.8687 37.6267 35.0907 37.1413 35.2969C37.0779 35.3217 37.0172 35.3521 36.9517 35.3824ZM42.3128 32.867C43.6763 32.8702 44.9852 32.3316 45.9516 31.3697C46.918 30.4079 47.4627 29.1015 47.4659 27.738C47.4691 26.3744 46.9306 25.0655 45.9687 24.0991C45.0068 23.1327 43.7004 22.588 42.3369 22.5848C39.5098 22.5765 37.1882 24.8768 37.1785 27.6969C37.1759 28.3736 37.3066 29.0441 37.5633 29.6703C37.8199 30.2964 38.1974 30.8658 38.6743 31.3459C39.1511 31.8261 39.7178 32.2075 40.3421 32.4685C40.9665 32.7295 41.6361 32.8649 42.3128 32.867Z" fill="black"/>
<path d="M53.2059 29.1228C53.2059 28.5022 53.1956 27.8968 53.2197 27.2942C53.2197 27.2252 53.4135 27.1301 53.5293 27.108C55.2 26.796 56.7488 26.0193 57.9981 24.8671C59.653 23.3501 60.6466 21.4739 60.921 19.246C61.4727 14.7827 58.7497 10.6359 54.4457 9.33198C49.7376 7.90535 44.6861 10.5511 43.1512 15.2557C43.0064 15.7005 42.9271 16.1666 42.8023 16.6189C42.7775 16.7079 42.6844 16.8444 42.6196 16.8465C42.0273 16.8644 41.4336 16.8568 40.842 16.8568C41.0357 12.9582 44.4675 7.744 50.6133 7.06895C56.8983 6.37942 62.4559 10.9482 62.9193 17.2995C63.3806 23.6162 58.6808 28.4947 53.2059 29.1228Z" fill="black"/>
<path d="M51.9862 16.1204C52.3737 16.2714 52.7585 16.4279 53.1487 16.5699C53.3239 16.6334 53.5142 16.7216 53.6886 16.7078C55.0125 16.5886 56.3344 16.4479 57.6569 16.3093C57.9106 16.2824 58.1706 16.2872 58.2837 16.541C58.3164 16.6224 58.3318 16.7097 58.3291 16.7974C58.3264 16.8851 58.3055 16.9713 58.2678 17.0505C58.1844 17.1884 57.9851 17.2719 57.8203 17.3415C56.6274 17.8456 55.4269 18.3324 54.2382 18.8454C54.0599 18.9302 53.9126 19.0685 53.8169 19.2412C53.5983 19.6551 53.2481 19.9843 52.8216 20.177C52.3951 20.3697 51.9165 20.4147 51.4615 20.3051C51.0051 20.1989 50.5989 19.9396 50.3103 19.5704C50.0218 19.2012 49.8684 18.7443 49.8755 18.2758C49.8804 17.3105 50.5258 16.4734 51.4408 16.2652C51.6099 16.2349 51.7804 16.2132 51.9517 16.2003L51.9862 16.1204Z" fill="black"/>
</g>
<path d="M8.64258 46.4688V55H7.5293V46.4688H8.64258ZM11.3848 46.4688V47.3945H4.79297V46.4688H11.3848ZM15.0312 55.1172C14.5898 55.1172 14.1895 55.043 13.8301 54.8945C13.4746 54.7422 13.168 54.5293 12.9102 54.2559C12.6562 53.9824 12.4609 53.6582 12.3242 53.2832C12.1875 52.9082 12.1191 52.498 12.1191 52.0527V51.8066C12.1191 51.291 12.1953 50.832 12.3477 50.4297C12.5 50.0234 12.707 49.6797 12.9688 49.3984C13.2305 49.1172 13.5273 48.9043 13.8594 48.7598C14.1914 48.6152 14.5352 48.543 14.8906 48.543C15.3438 48.543 15.7344 48.6211 16.0625 48.7773C16.3945 48.9336 16.666 49.1523 16.877 49.4336C17.0879 49.7109 17.2441 50.0391 17.3457 50.418C17.4473 50.793 17.498 51.2031 17.498 51.6484V52.1348H12.7637V51.25H16.4141V51.168C16.3984 50.8867 16.3398 50.6133 16.2383 50.3477C16.1406 50.082 15.9844 49.8633 15.7695 49.6914C15.5547 49.5195 15.2617 49.4336 14.8906 49.4336C14.6445 49.4336 14.418 49.4863 14.2109 49.5918C14.0039 49.6934 13.8262 49.8457 13.6777 50.0488C13.5293 50.252 13.4141 50.5 13.332 50.793C13.25 51.0859 13.209 51.4238 13.209 51.8066V52.0527C13.209 52.3535 13.25 52.6367 13.332 52.9023C13.418 53.1641 13.541 53.3945 13.7012 53.5938C13.8652 53.793 14.0625 53.9492 14.293 54.0625C14.5273 54.1758 14.793 54.2324 15.0898 54.2324C15.4727 54.2324 15.7969 54.1543 16.0625 53.998C16.3281 53.8418 16.5605 53.6328 16.7598 53.3711L17.416 53.8926C17.2793 54.0996 17.1055 54.2969 16.8945 54.4844C16.6836 54.6719 16.4238 54.8242 16.1152 54.9414C15.8105 55.0586 15.4492 55.1172 15.0312 55.1172ZM23.002 53.916V50.6523C23.002 50.4023 22.9512 50.1855 22.8496 50.002C22.752 49.8145 22.6035 49.6699 22.4043 49.5684C22.2051 49.4668 21.959 49.416 21.666 49.416C21.3926 49.416 21.1523 49.4629 20.9453 49.5566C20.7422 49.6504 20.582 49.7734 20.4648 49.9258C20.3516 50.0781 20.2949 50.2422 20.2949 50.418H19.2109C19.2109 50.1914 19.2695 49.9668 19.3867 49.7441C19.5039 49.5215 19.6719 49.3203 19.8906 49.1406C20.1133 48.957 20.3789 48.8125 20.6875 48.707C21 48.5977 21.3477 48.543 21.7305 48.543C22.1914 48.543 22.5977 48.6211 22.9492 48.7773C23.3047 48.9336 23.582 49.1699 23.7812 49.4863C23.9844 49.7988 24.0859 50.1914 24.0859 50.6641V53.6172C24.0859 53.8281 24.1035 54.0527 24.1387 54.291C24.1777 54.5293 24.2344 54.7344 24.3086 54.9062V55H23.1777C23.123 54.875 23.0801 54.709 23.0488 54.502C23.0176 54.291 23.002 54.0957 23.002 53.916ZM23.1895 51.1562L23.2012 51.918H22.1055C21.7969 51.918 21.5215 51.9434 21.2793 51.9941C21.0371 52.041 20.834 52.1133 20.6699 52.2109C20.5059 52.3086 20.3809 52.4316 20.2949 52.5801C20.209 52.7246 20.166 52.8945 20.166 53.0898C20.166 53.2891 20.2109 53.4707 20.3008 53.6348C20.3906 53.7988 20.5254 53.9297 20.7051 54.0273C20.8887 54.1211 21.1133 54.168 21.3789 54.168C21.7109 54.168 22.0039 54.0977 22.2578 53.957C22.5117 53.8164 22.7129 53.6445 22.8613 53.4414C23.0137 53.2383 23.0957 53.041 23.1074 52.8496L23.5703 53.3711C23.543 53.5352 23.4688 53.7168 23.3477 53.916C23.2266 54.1152 23.0645 54.3066 22.8613 54.4902C22.6621 54.6699 22.4238 54.8203 22.1465 54.9414C21.873 55.0586 21.5645 55.1172 21.2207 55.1172C20.791 55.1172 20.4141 55.0332 20.0898 54.8652C19.7695 54.6973 19.5195 54.4727 19.3398 54.1914C19.1641 53.9062 19.0762 53.5879 19.0762 53.2363C19.0762 52.8965 19.1426 52.5977 19.2754 52.3398C19.4082 52.0781 19.5996 51.8613 19.8496 51.6895C20.0996 51.5137 20.4004 51.3809 20.752 51.291C21.1035 51.2012 21.4961 51.1562 21.9297 51.1562H23.1895ZM27.3691 49.9199V55H26.2793V48.6602H27.3105L27.3691 49.9199ZM27.1465 51.5898L26.6426 51.5723C26.6465 51.1387 26.7031 50.7383 26.8125 50.3711C26.9219 50 27.084 49.6777 27.2988 49.4043C27.5137 49.1309 27.7812 48.9199 28.1016 48.7715C28.4219 48.6191 28.793 48.543 29.2148 48.543C29.5117 48.543 29.7852 48.5859 30.0352 48.6719C30.2852 48.7539 30.502 48.8848 30.6855 49.0645C30.8691 49.2441 31.0117 49.4746 31.1133 49.7559C31.2148 50.0371 31.2656 50.377 31.2656 50.7754V55H30.1816V50.8281C30.1816 50.4961 30.125 50.2305 30.0117 50.0312C29.9023 49.832 29.7461 49.6875 29.543 49.5977C29.3398 49.5039 29.1016 49.457 28.8281 49.457C28.5078 49.457 28.2402 49.5137 28.0254 49.627C27.8105 49.7402 27.6387 49.8965 27.5098 50.0957C27.3809 50.2949 27.2871 50.5234 27.2285 50.7812C27.1738 51.0352 27.1465 51.3047 27.1465 51.5898ZM31.2539 50.9922L30.5273 51.2148C30.5312 50.8672 30.5879 50.5332 30.6973 50.2129C30.8105 49.8926 30.9727 49.6074 31.1836 49.3574C31.3984 49.1074 31.6621 48.9102 31.9746 48.7656C32.2871 48.6172 32.6445 48.543 33.0469 48.543C33.3867 48.543 33.6875 48.5879 33.9492 48.6777C34.2148 48.7676 34.4375 48.9062 34.6172 49.0938C34.8008 49.2773 34.9395 49.5137 35.0332 49.8027C35.127 50.0918 35.1738 50.4355 35.1738 50.834V55H34.084V50.8223C34.084 50.4668 34.0273 50.1914 33.9141 49.9961C33.8047 49.7969 33.6484 49.6582 33.4453 49.5801C33.2461 49.498 33.0078 49.457 32.7305 49.457C32.4922 49.457 32.2812 49.498 32.0977 49.5801C31.9141 49.6621 31.7598 49.7754 31.6348 49.9199C31.5098 50.0605 31.4141 50.2227 31.3477 50.4062C31.2852 50.5898 31.2539 50.7852 31.2539 50.9922ZM40.9551 46.4688H43.7793C44.4199 46.4688 44.9609 46.5664 45.4023 46.7617C45.8477 46.957 46.1855 47.2461 46.416 47.6289C46.6504 48.0078 46.7676 48.4746 46.7676 49.0293C46.7676 49.4199 46.6875 49.7773 46.5273 50.1016C46.3711 50.4219 46.1445 50.6953 45.8477 50.9219C45.5547 51.1445 45.2031 51.3105 44.793 51.4199L44.4766 51.543H41.8223L41.8105 50.623H43.8145C44.2207 50.623 44.5586 50.5527 44.8281 50.4121C45.0977 50.2676 45.3008 50.0742 45.4375 49.832C45.5742 49.5898 45.6426 49.3223 45.6426 49.0293C45.6426 48.7012 45.5781 48.4141 45.4492 48.168C45.3203 47.9219 45.1172 47.7324 44.8398 47.5996C44.5664 47.4629 44.2129 47.3945 43.7793 47.3945H42.0859V55H40.9551V46.4688ZM45.9414 55L43.8672 51.1328L45.0449 51.127L47.1484 54.9297V55H45.9414ZM51.3164 55.1172C50.875 55.1172 50.4746 55.043 50.1152 54.8945C49.7598 54.7422 49.4531 54.5293 49.1953 54.2559C48.9414 53.9824 48.7461 53.6582 48.6094 53.2832C48.4727 52.9082 48.4043 52.498 48.4043 52.0527V51.8066C48.4043 51.291 48.4805 50.832 48.6328 50.4297C48.7852 50.0234 48.9922 49.6797 49.2539 49.3984C49.5156 49.1172 49.8125 48.9043 50.1445 48.7598C50.4766 48.6152 50.8203 48.543 51.1758 48.543C51.6289 48.543 52.0195 48.6211 52.3477 48.7773C52.6797 48.9336 52.9512 49.1523 53.1621 49.4336C53.373 49.7109 53.5293 50.0391 53.6309 50.418C53.7324 50.793 53.7832 51.2031 53.7832 51.6484V52.1348H49.0488V51.25H52.6992V51.168C52.6836 50.8867 52.625 50.6133 52.5234 50.3477C52.4258 50.082 52.2695 49.8633 52.0547 49.6914C51.8398 49.5195 51.5469 49.4336 51.1758 49.4336C50.9297 49.4336 50.7031 49.4863 50.4961 49.5918C50.2891 49.6934 50.1113 49.8457 49.9629 50.0488C49.8145 50.252 49.6992 50.5 49.6172 50.793C49.5352 51.0859 49.4941 51.4238 49.4941 51.8066V52.0527C49.4941 52.3535 49.5352 52.6367 49.6172 52.9023C49.7031 53.1641 49.8262 53.3945 49.9863 53.5938C50.1504 53.793 50.3477 53.9492 50.5781 54.0625C50.8125 54.1758 51.0781 54.2324 51.375 54.2324C51.7578 54.2324 52.082 54.1543 52.3477 53.998C52.6133 53.8418 52.8457 53.6328 53.0449 53.3711L53.7012 53.8926C53.5645 54.0996 53.3906 54.2969 53.1797 54.4844C52.9688 54.6719 52.709 54.8242 52.4004 54.9414C52.0957 55.0586 51.7344 55.1172 51.3164 55.1172ZM56.6328 49.8789V57.4375H55.543V48.6602H56.5391L56.6328 49.8789ZM60.9043 51.7773V51.9004C60.9043 52.3613 60.8496 52.7891 60.7402 53.1836C60.6309 53.5742 60.4707 53.9141 60.2598 54.2031C60.0527 54.4922 59.7969 54.7168 59.4922 54.877C59.1875 55.0371 58.8379 55.1172 58.4434 55.1172C58.041 55.1172 57.6855 55.0508 57.377 54.918C57.0684 54.7852 56.8066 54.5918 56.5918 54.3379C56.377 54.084 56.2051 53.7793 56.0762 53.4238C55.9512 53.0684 55.8652 52.668 55.8184 52.2227V51.5664C55.8652 51.0977 55.9531 50.6777 56.082 50.3066C56.2109 49.9355 56.3809 49.6191 56.5918 49.3574C56.8066 49.0918 57.0664 48.8906 57.3711 48.7539C57.6758 48.6133 58.0273 48.543 58.4258 48.543C58.8242 48.543 59.1777 48.6211 59.4863 48.7773C59.7949 48.9297 60.0547 49.1484 60.2656 49.4336C60.4766 49.7188 60.6348 50.0605 60.7402 50.459C60.8496 50.8535 60.9043 51.293 60.9043 51.7773ZM59.8145 51.9004V51.7773C59.8145 51.4609 59.7812 51.1641 59.7148 50.8867C59.6484 50.6055 59.5449 50.3594 59.4043 50.1484C59.2676 49.9336 59.0918 49.7656 58.877 49.6445C58.6621 49.5195 58.4062 49.457 58.1094 49.457C57.8359 49.457 57.5977 49.5039 57.3945 49.5977C57.1953 49.6914 57.0254 49.8184 56.8848 49.9785C56.7441 50.1348 56.6289 50.3145 56.5391 50.5176C56.4531 50.7168 56.3887 50.9238 56.3457 51.1387V52.6562C56.4238 52.9297 56.5332 53.1875 56.6738 53.4297C56.8145 53.668 57.002 53.8613 57.2363 54.0098C57.4707 54.1543 57.7656 54.2266 58.1211 54.2266C58.4141 54.2266 58.666 54.166 58.877 54.0449C59.0918 53.9199 59.2676 53.75 59.4043 53.5352C59.5449 53.3203 59.6484 53.0742 59.7148 52.7969C59.7812 52.5156 59.8145 52.2168 59.8145 51.9004ZM62.5 51.9004V51.7656C62.5 51.3086 62.5664 50.8848 62.6992 50.4941C62.832 50.0996 63.0234 49.7578 63.2734 49.4688C63.5234 49.1758 63.8262 48.9492 64.1816 48.7891C64.5371 48.625 64.9355 48.543 65.377 48.543C65.8223 48.543 66.2227 48.625 66.5781 48.7891C66.9375 48.9492 67.2422 49.1758 67.4922 49.4688C67.7461 49.7578 67.9395 50.0996 68.0723 50.4941C68.2051 50.8848 68.2715 51.3086 68.2715 51.7656V51.9004C68.2715 52.3574 68.2051 52.7812 68.0723 53.1719C67.9395 53.5625 67.7461 53.9043 67.4922 54.1973C67.2422 54.4863 66.9395 54.7129 66.584 54.877C66.2324 55.0371 65.834 55.1172 65.3887 55.1172C64.9434 55.1172 64.543 55.0371 64.1875 54.877C63.832 54.7129 63.5273 54.4863 63.2734 54.1973C63.0234 53.9043 62.832 53.5625 62.6992 53.1719C62.5664 52.7812 62.5 52.3574 62.5 51.9004ZM63.584 51.7656V51.9004C63.584 52.2168 63.6211 52.5156 63.6953 52.7969C63.7695 53.0742 63.8809 53.3203 64.0293 53.5352C64.1816 53.75 64.3711 53.9199 64.5977 54.0449C64.8242 54.166 65.0879 54.2266 65.3887 54.2266C65.6855 54.2266 65.9453 54.166 66.168 54.0449C66.3945 53.9199 66.582 53.75 66.7305 53.5352C66.8789 53.3203 66.9902 53.0742 67.0645 52.7969C67.1426 52.5156 67.1816 52.2168 67.1816 51.9004V51.7656C67.1816 51.4531 67.1426 51.1582 67.0645 50.8809C66.9902 50.5996 66.877 50.3516 66.7246 50.1367C66.5762 49.918 66.3887 49.7461 66.1621 49.6211C65.9395 49.4961 65.6777 49.4336 65.377 49.4336C65.0801 49.4336 64.8184 49.4961 64.5918 49.6211C64.3691 49.7461 64.1816 49.918 64.0293 50.1367C63.8809 50.3516 63.7695 50.5996 63.6953 50.8809C63.6211 51.1582 63.584 51.4531 63.584 51.7656ZM71.2148 49.6562V55H70.1309V48.6602H71.1855L71.2148 49.6562ZM73.1953 48.625L73.1895 49.6328C73.0996 49.6133 73.0137 49.6016 72.9316 49.5977C72.8535 49.5898 72.7637 49.5859 72.6621 49.5859C72.4121 49.5859 72.1914 49.625 72 49.7031C71.8086 49.7812 71.6465 49.8906 71.5137 50.0312C71.3809 50.1719 71.2754 50.3398 71.1973 50.5352C71.123 50.7266 71.0742 50.9375 71.0508 51.168L70.7461 51.3438C70.7461 50.9609 70.7832 50.6016 70.8574 50.2656C70.9355 49.9297 71.0547 49.6328 71.2148 49.375C71.375 49.1133 71.5781 48.9102 71.8242 48.7656C72.0742 48.6172 72.3711 48.543 72.7148 48.543C72.793 48.543 72.8828 48.5527 72.9844 48.5723C73.0859 48.5879 73.1562 48.6055 73.1953 48.625ZM77.6445 48.6602V49.4922H74.2168V48.6602H77.6445ZM75.377 47.1191H76.4609V53.4297C76.4609 53.6445 76.4941 53.8066 76.5605 53.916C76.627 54.0254 76.7129 54.0977 76.8184 54.1328C76.9238 54.168 77.0371 54.1855 77.1582 54.1855C77.248 54.1855 77.3418 54.1777 77.4395 54.1621C77.541 54.1426 77.6172 54.127 77.668 54.1152L77.6738 55C77.5879 55.0273 77.4746 55.0527 77.334 55.0762C77.1973 55.1035 77.0312 55.1172 76.8359 55.1172C76.5703 55.1172 76.3262 55.0645 76.1035 54.959C75.8809 54.8535 75.7031 54.6777 75.5703 54.4316C75.4414 54.1816 75.377 53.8457 75.377 53.4238V47.1191ZM83.1074 53.3184C83.1074 53.1621 83.0723 53.0176 83.002 52.8848C82.9355 52.748 82.7969 52.625 82.5859 52.5156C82.3789 52.4023 82.0664 52.3047 81.6484 52.2227C81.2969 52.1484 80.9785 52.0605 80.6934 51.959C80.4121 51.8574 80.1719 51.7344 79.9727 51.5898C79.7773 51.4453 79.627 51.2754 79.5215 51.0801C79.416 50.8848 79.3633 50.6562 79.3633 50.3945C79.3633 50.1445 79.418 49.9082 79.5273 49.6855C79.6406 49.4629 79.7988 49.2656 80.002 49.0938C80.209 48.9219 80.457 48.7871 80.7461 48.6895C81.0352 48.5918 81.3574 48.543 81.7129 48.543C82.2207 48.543 82.6543 48.6328 83.0137 48.8125C83.373 48.9922 83.6484 49.2324 83.8398 49.5332C84.0312 49.8301 84.127 50.1602 84.127 50.5234H83.043C83.043 50.3477 82.9902 50.1777 82.8848 50.0137C82.7832 49.8457 82.6328 49.707 82.4336 49.5977C82.2383 49.4883 81.998 49.4336 81.7129 49.4336C81.4121 49.4336 81.168 49.4805 80.9805 49.5742C80.7969 49.6641 80.6621 49.7793 80.5762 49.9199C80.4941 50.0605 80.4531 50.209 80.4531 50.3652C80.4531 50.4824 80.4727 50.5879 80.5117 50.6816C80.5547 50.7715 80.6289 50.8555 80.7344 50.9336C80.8398 51.0078 80.9883 51.0781 81.1797 51.1445C81.3711 51.2109 81.6152 51.2773 81.9121 51.3438C82.4316 51.4609 82.8594 51.6016 83.1953 51.7656C83.5312 51.9297 83.7812 52.1309 83.9453 52.3691C84.1094 52.6074 84.1914 52.8965 84.1914 53.2363C84.1914 53.5137 84.1328 53.7676 84.0156 53.998C83.9023 54.2285 83.7363 54.4277 83.5176 54.5957C83.3027 54.7598 83.0449 54.8887 82.7441 54.9824C82.4473 55.0723 82.1133 55.1172 81.7422 55.1172C81.1836 55.1172 80.7109 55.0176 80.3242 54.8184C79.9375 54.6191 79.6445 54.3613 79.4453 54.0449C79.2461 53.7285 79.1465 53.3945 79.1465 53.043H80.2363C80.252 53.3398 80.3379 53.5762 80.4941 53.752C80.6504 53.9238 80.8418 54.0469 81.0684 54.1211C81.2949 54.1914 81.5195 54.2266 81.7422 54.2266C82.0391 54.2266 82.2871 54.1875 82.4863 54.1094C82.6895 54.0312 82.8438 53.9238 82.9492 53.7871C83.0547 53.6504 83.1074 53.4941 83.1074 53.3184Z" fill="black" fill-opacity="0.8"/>
<defs>
<clipPath id="clip0_118_248">
<rect width="30" height="30" fill="white" transform="translate(33 7)"/>
</clipPath>
</defs>
</svg>
