<svg width="30" height="30" viewBox="0 0 30 30" fill="none" xmlns="http://www.w3.org/2000/svg">
<path d="M16.5 13.5H22.5V16.5H16.5V22.5H13.5V16.5H7.5V13.5H13.5V7.5H16.5V13.5ZM15 30C11.0218 30 7.20644 28.4196 4.3934 25.6066C1.58035 22.7936 0 18.9782 0 15C0 11.0218 1.58035 7.20644 4.3934 4.3934C7.20644 1.58035 11.0218 0 15 0C18.9782 0 22.7936 1.58035 25.6066 4.3934C28.4196 7.20644 30 11.0218 30 15C30 18.9782 28.4196 22.7936 25.6066 25.6066C22.7936 28.4196 18.9782 30 15 30ZM15 27C18.1826 27 21.2348 25.7357 23.4853 23.4853C25.7357 21.2348 27 18.1826 27 15C27 11.8174 25.7357 8.76516 23.4853 6.51472C21.2348 4.26428 18.1826 3 15 3C11.8174 3 8.76516 4.26428 6.51472 6.51472C4.26428 8.76516 3 11.8174 3 15C3 18.1826 4.26428 21.2348 6.51472 23.4853C8.76516 25.7357 11.8174 27 15 27Z" fill="white" fill-opacity="0.7"/>
</svg>
