<svg width="96" height="48" viewBox="0 0 96 48" fill="none" xmlns="http://www.w3.org/2000/svg">
<g clip-path="url(#clip0_118_259)">
<path d="M36.5 7.99995C36.5002 7.05187 36.7455 6.11993 37.212 5.29458C37.6786 4.46923 38.3505 3.7785 39.1627 3.28942C39.9749 2.80033 40.8998 2.5295 41.8475 2.50321C42.7952 2.47692 43.7336 2.69607 44.5717 3.13937C45.4097 3.58268 46.119 4.23509 46.6306 5.03331C47.1421 5.83152 47.4387 6.74843 47.4915 7.69505C47.5442 8.64166 47.3514 9.58584 46.9317 10.436C46.5119 11.2861 45.8796 12.0133 45.096 12.547C46.7835 13.1659 48.2472 14.2757 49.2986 15.7335C50.3501 17.1913 50.9412 18.9304 50.996 20.727C50.9937 20.9207 50.9166 21.106 50.7808 21.2442C50.6451 21.3824 50.4612 21.4628 50.2676 21.4686C50.0739 21.4744 49.8855 21.4052 49.7418 21.2753C49.598 21.1455 49.5099 20.9652 49.496 20.772C49.4364 18.8234 48.6205 16.9746 47.2212 15.6174C45.8218 14.2601 43.9489 13.5011 41.9995 13.5011C40.05 13.5011 38.1772 14.2601 36.7778 15.6174C35.3784 16.9746 34.5625 18.8234 34.503 20.772C34.493 20.9678 34.4067 21.1519 34.2625 21.2849C34.1184 21.4178 33.928 21.4891 33.732 21.4833C33.536 21.4776 33.35 21.3953 33.2139 21.2541C33.0779 21.1129 33.0025 20.924 33.004 20.728C33.0585 18.9312 33.6496 17.1919 34.7011 15.7339C35.7526 14.2759 37.2163 13.166 38.904 12.547C38.1628 12.0426 37.5563 11.3646 37.1373 10.572C36.7182 9.77947 36.4995 8.89645 36.5 7.99995ZM42 3.99995C40.9391 3.99995 39.9217 4.42138 39.1716 5.17153C38.4214 5.92167 38 6.93909 38 7.99995C38 9.06082 38.4214 10.0782 39.1716 10.8284C39.9217 11.5785 40.9391 12 42 12C43.0609 12 44.0783 11.5785 44.8284 10.8284C45.5786 10.0782 46 9.06082 46 7.99995C46 6.93909 45.5786 5.92167 44.8284 5.17153C44.0783 4.42138 43.0609 3.99995 42 3.99995ZM50.29 7.99995C50.142 7.99995 49.998 8.00995 49.856 8.02995C49.7568 8.0477 49.6551 8.04531 49.5569 8.0229C49.4588 8.00049 49.3661 7.95854 49.2845 7.89954C49.2028 7.84054 49.1339 7.7657 49.0818 7.67949C49.0298 7.59328 48.9956 7.49747 48.9813 7.39776C48.9671 7.29805 48.9731 7.1965 48.9989 7.09916C49.0248 7.00181 49.07 6.91068 49.1318 6.83118C49.1937 6.75168 49.2709 6.68546 49.3589 6.63645C49.4469 6.58745 49.5438 6.55667 49.644 6.54595C50.6386 6.40216 51.6527 6.59315 52.5269 7.08888C53.401 7.5846 54.0855 8.35692 54.4726 9.28428C54.8597 10.2116 54.9275 11.2414 54.6652 12.2115C54.403 13.1816 53.8256 14.0369 53.024 14.643C54.2024 15.1706 55.2029 16.028 55.9049 17.1116C56.6068 18.1952 56.9802 19.4588 56.98 20.75C56.98 20.9489 56.901 21.1396 56.7603 21.2803C56.6197 21.4209 56.4289 21.5 56.23 21.5C56.0311 21.5 55.8403 21.4209 55.6997 21.2803C55.559 21.1396 55.48 20.9489 55.48 20.75C55.4799 19.6341 55.1203 18.548 54.4546 17.6524C53.7889 16.7569 52.8525 16.0996 51.784 15.778L51.25 15.618V13.942L51.66 13.733C52.2677 13.4251 52.754 12.9214 53.0403 12.3032C53.3266 11.685 53.3962 10.9883 53.2378 10.3257C53.0795 9.66309 52.7024 9.07316 52.1676 8.65118C51.6327 8.22919 50.9713 7.99977 50.29 7.99995Z" fill="black"/>
<path d="M8.14844 40.2246L5.32422 48H4.16992L7.42188 39.4688H8.16602L8.14844 40.2246ZM10.5156 48L7.68555 40.2246L7.66797 39.4688H8.41211L11.6758 48H10.5156ZM10.3691 44.8418V45.7676H5.57617V44.8418H10.3691ZM17.1504 46.7695V39H18.2402V48H17.2441L17.1504 46.7695ZM12.8848 44.9004V44.7773C12.8848 44.293 12.9434 43.8535 13.0605 43.459C13.1816 43.0605 13.3516 42.7188 13.5703 42.4336C13.793 42.1484 14.0566 41.9297 14.3613 41.7773C14.6699 41.6211 15.0137 41.543 15.3926 41.543C15.791 41.543 16.1387 41.6133 16.4355 41.7539C16.7363 41.8906 16.9902 42.0918 17.1973 42.3574C17.4082 42.6191 17.5742 42.9355 17.6953 43.3066C17.8164 43.6777 17.9004 44.0977 17.9473 44.5664V45.1055C17.9043 45.5703 17.8203 45.9883 17.6953 46.3594C17.5742 46.7305 17.4082 47.0469 17.1973 47.3086C16.9902 47.5703 16.7363 47.7715 16.4355 47.9121C16.1348 48.0488 15.7832 48.1172 15.3809 48.1172C15.0098 48.1172 14.6699 48.0371 14.3613 47.877C14.0566 47.7168 13.793 47.4922 13.5703 47.2031C13.3516 46.9141 13.1816 46.5742 13.0605 46.1836C12.9434 45.7891 12.8848 45.3613 12.8848 44.9004ZM13.9746 44.7773V44.9004C13.9746 45.2168 14.0059 45.5137 14.0684 45.791C14.1348 46.0684 14.2363 46.3125 14.373 46.5234C14.5098 46.7344 14.6836 46.9004 14.8945 47.0215C15.1055 47.1387 15.3574 47.1973 15.6504 47.1973C16.0098 47.1973 16.3047 47.1211 16.5352 46.9688C16.7695 46.8164 16.957 46.6152 17.0977 46.3652C17.2383 46.1152 17.3477 45.8438 17.4258 45.5508V44.1387C17.3789 43.9238 17.3105 43.7168 17.2207 43.5176C17.1348 43.3145 17.0215 43.1348 16.8809 42.9785C16.7441 42.8184 16.5742 42.6914 16.3711 42.5977C16.1719 42.5039 15.9355 42.457 15.6621 42.457C15.3652 42.457 15.1094 42.5195 14.8945 42.6445C14.6836 42.7656 14.5098 42.9336 14.373 43.1484C14.2363 43.3594 14.1348 43.6055 14.0684 43.8867C14.0059 44.1641 13.9746 44.4609 13.9746 44.7773ZM21.5059 42.9199V48H20.416V41.6602H21.4473L21.5059 42.9199ZM21.2832 44.5898L20.7793 44.5723C20.7832 44.1387 20.8398 43.7383 20.9492 43.3711C21.0586 43 21.2207 42.6777 21.4355 42.4043C21.6504 42.1309 21.918 41.9199 22.2383 41.7715C22.5586 41.6191 22.9297 41.543 23.3516 41.543C23.6484 41.543 23.9219 41.5859 24.1719 41.6719C24.4219 41.7539 24.6387 41.8848 24.8223 42.0645C25.0059 42.2441 25.1484 42.4746 25.25 42.7559C25.3516 43.0371 25.4023 43.377 25.4023 43.7754V48H24.3184V43.8281C24.3184 43.4961 24.2617 43.2305 24.1484 43.0312C24.0391 42.832 23.8828 42.6875 23.6797 42.5977C23.4766 42.5039 23.2383 42.457 22.9648 42.457C22.6445 42.457 22.377 42.5137 22.1621 42.627C21.9473 42.7402 21.7754 42.8965 21.6465 43.0957C21.5176 43.2949 21.4238 43.5234 21.3652 43.7812C21.3105 44.0352 21.2832 44.3047 21.2832 44.5898ZM25.3906 43.9922L24.6641 44.2148C24.668 43.8672 24.7246 43.5332 24.834 43.2129C24.9473 42.8926 25.1094 42.6074 25.3203 42.3574C25.5352 42.1074 25.7988 41.9102 26.1113 41.7656C26.4238 41.6172 26.7812 41.543 27.1836 41.543C27.5234 41.543 27.8242 41.5879 28.0859 41.6777C28.3516 41.7676 28.5742 41.9062 28.7539 42.0938C28.9375 42.2773 29.0762 42.5137 29.1699 42.8027C29.2637 43.0918 29.3105 43.4355 29.3105 43.834V48H28.2207V43.8223C28.2207 43.4668 28.1641 43.1914 28.0508 42.9961C27.9414 42.7969 27.7852 42.6582 27.582 42.5801C27.3828 42.498 27.1445 42.457 26.8672 42.457C26.6289 42.457 26.418 42.498 26.2344 42.5801C26.0508 42.6621 25.8965 42.7754 25.7715 42.9199C25.6465 43.0605 25.5508 43.2227 25.4844 43.4062C25.4219 43.5898 25.3906 43.7852 25.3906 43.9922ZM32.6289 41.6602V48H31.5391V41.6602H32.6289ZM31.457 39.9785C31.457 39.8027 31.5098 39.6543 31.6152 39.5332C31.7246 39.4121 31.8848 39.3516 32.0957 39.3516C32.3027 39.3516 32.4609 39.4121 32.5703 39.5332C32.6836 39.6543 32.7402 39.8027 32.7402 39.9785C32.7402 40.1465 32.6836 40.291 32.5703 40.4121C32.4609 40.5293 32.3027 40.5879 32.0957 40.5879C31.8848 40.5879 31.7246 40.5293 31.6152 40.4121C31.5098 40.291 31.457 40.1465 31.457 39.9785ZM35.9531 43.0137V48H34.8691V41.6602H35.8945L35.9531 43.0137ZM35.6953 44.5898L35.2441 44.5723C35.248 44.1387 35.3125 43.7383 35.4375 43.3711C35.5625 43 35.7383 42.6777 35.9648 42.4043C36.1914 42.1309 36.4609 41.9199 36.7734 41.7715C37.0898 41.6191 37.4395 41.543 37.8223 41.543C38.1348 41.543 38.416 41.5859 38.666 41.6719C38.916 41.7539 39.1289 41.8867 39.3047 42.0703C39.4844 42.2539 39.6211 42.4922 39.7148 42.7852C39.8086 43.0742 39.8555 43.4277 39.8555 43.8457V48H38.7656V43.834C38.7656 43.502 38.7168 43.2363 38.6191 43.0371C38.5215 42.834 38.3789 42.6875 38.1914 42.5977C38.0039 42.5039 37.7734 42.457 37.5 42.457C37.2305 42.457 36.9844 42.5137 36.7617 42.627C36.543 42.7402 36.3535 42.8965 36.1934 43.0957C36.0371 43.2949 35.9141 43.5234 35.8242 43.7812C35.7383 44.0352 35.6953 44.3047 35.6953 44.5898ZM43.1797 41.6602V48H42.0898V41.6602H43.1797ZM42.0078 39.9785C42.0078 39.8027 42.0605 39.6543 42.166 39.5332C42.2754 39.4121 42.4355 39.3516 42.6465 39.3516C42.8535 39.3516 43.0117 39.4121 43.1211 39.5332C43.2344 39.6543 43.291 39.8027 43.291 39.9785C43.291 40.1465 43.2344 40.291 43.1211 40.4121C43.0117 40.5293 42.8535 40.5879 42.6465 40.5879C42.4355 40.5879 42.2754 40.5293 42.166 40.4121C42.0605 40.291 42.0078 40.1465 42.0078 39.9785ZM49.1113 46.3184C49.1113 46.1621 49.0762 46.0176 49.0059 45.8848C48.9395 45.748 48.8008 45.625 48.5898 45.5156C48.3828 45.4023 48.0703 45.3047 47.6523 45.2227C47.3008 45.1484 46.9824 45.0605 46.6973 44.959C46.416 44.8574 46.1758 44.7344 45.9766 44.5898C45.7812 44.4453 45.6309 44.2754 45.5254 44.0801C45.4199 43.8848 45.3672 43.6562 45.3672 43.3945C45.3672 43.1445 45.4219 42.9082 45.5312 42.6855C45.6445 42.4629 45.8027 42.2656 46.0059 42.0938C46.2129 41.9219 46.4609 41.7871 46.75 41.6895C47.0391 41.5918 47.3613 41.543 47.7168 41.543C48.2246 41.543 48.6582 41.6328 49.0176 41.8125C49.377 41.9922 49.6523 42.2324 49.8438 42.5332C50.0352 42.8301 50.1309 43.1602 50.1309 43.5234H49.0469C49.0469 43.3477 48.9941 43.1777 48.8887 43.0137C48.7871 42.8457 48.6367 42.707 48.4375 42.5977C48.2422 42.4883 48.002 42.4336 47.7168 42.4336C47.416 42.4336 47.1719 42.4805 46.9844 42.5742C46.8008 42.6641 46.666 42.7793 46.5801 42.9199C46.498 43.0605 46.457 43.209 46.457 43.3652C46.457 43.4824 46.4766 43.5879 46.5156 43.6816C46.5586 43.7715 46.6328 43.8555 46.7383 43.9336C46.8438 44.0078 46.9922 44.0781 47.1836 44.1445C47.375 44.2109 47.6191 44.2773 47.916 44.3438C48.4355 44.4609 48.8633 44.6016 49.1992 44.7656C49.5352 44.9297 49.7852 45.1309 49.9492 45.3691C50.1133 45.6074 50.1953 45.8965 50.1953 46.2363C50.1953 46.5137 50.1367 46.7676 50.0195 46.998C49.9062 47.2285 49.7402 47.4277 49.5215 47.5957C49.3066 47.7598 49.0488 47.8887 48.748 47.9824C48.4512 48.0723 48.1172 48.1172 47.7461 48.1172C47.1875 48.1172 46.7148 48.0176 46.3281 47.8184C45.9414 47.6191 45.6484 47.3613 45.4492 47.0449C45.25 46.7285 45.1504 46.3945 45.1504 46.043H46.2402C46.2559 46.3398 46.3418 46.5762 46.498 46.752C46.6543 46.9238 46.8457 47.0469 47.0723 47.1211C47.2988 47.1914 47.5234 47.2266 47.7461 47.2266C48.043 47.2266 48.291 47.1875 48.4902 47.1094C48.6934 47.0312 48.8477 46.9238 48.9531 46.7871C49.0586 46.6504 49.1113 46.4941 49.1113 46.3184ZM54.7734 41.6602V42.4922H51.3457V41.6602H54.7734ZM52.5059 40.1191H53.5898V46.4297C53.5898 46.6445 53.623 46.8066 53.6895 46.916C53.7559 47.0254 53.8418 47.0977 53.9473 47.1328C54.0527 47.168 54.166 47.1855 54.2871 47.1855C54.377 47.1855 54.4707 47.1777 54.5684 47.1621C54.6699 47.1426 54.7461 47.127 54.7969 47.1152L54.8027 48C54.7168 48.0273 54.6035 48.0527 54.4629 48.0762C54.3262 48.1035 54.1602 48.1172 53.9648 48.1172C53.6992 48.1172 53.4551 48.0645 53.2324 47.959C53.0098 47.8535 52.832 47.6777 52.6992 47.4316C52.5703 47.1816 52.5059 46.8457 52.5059 46.4238V40.1191ZM57.6289 42.6562V48H56.5449V41.6602H57.5996L57.6289 42.6562ZM59.6094 41.625L59.6035 42.6328C59.5137 42.6133 59.4277 42.6016 59.3457 42.5977C59.2676 42.5898 59.1777 42.5859 59.0762 42.5859C58.8262 42.5859 58.6055 42.625 58.4141 42.7031C58.2227 42.7812 58.0605 42.8906 57.9277 43.0312C57.7949 43.1719 57.6895 43.3398 57.6113 43.5352C57.5371 43.7266 57.4883 43.9375 57.4648 44.168L57.1602 44.3438C57.1602 43.9609 57.1973 43.6016 57.2715 43.2656C57.3496 42.9297 57.4688 42.6328 57.6289 42.375C57.7891 42.1133 57.9922 41.9102 58.2383 41.7656C58.4883 41.6172 58.7852 41.543 59.1289 41.543C59.207 41.543 59.2969 41.5527 59.3984 41.5723C59.5 41.5879 59.5703 41.6055 59.6094 41.625ZM64.6152 46.916V43.6523C64.6152 43.4023 64.5645 43.1855 64.4629 43.002C64.3652 42.8145 64.2168 42.6699 64.0176 42.5684C63.8184 42.4668 63.5723 42.416 63.2793 42.416C63.0059 42.416 62.7656 42.4629 62.5586 42.5566C62.3555 42.6504 62.1953 42.7734 62.0781 42.9258C61.9648 43.0781 61.9082 43.2422 61.9082 43.418H60.8242C60.8242 43.1914 60.8828 42.9668 61 42.7441C61.1172 42.5215 61.2852 42.3203 61.5039 42.1406C61.7266 41.957 61.9922 41.8125 62.3008 41.707C62.6133 41.5977 62.9609 41.543 63.3438 41.543C63.8047 41.543 64.2109 41.6211 64.5625 41.7773C64.918 41.9336 65.1953 42.1699 65.3945 42.4863C65.5977 42.7988 65.6992 43.1914 65.6992 43.6641V46.6172C65.6992 46.8281 65.7168 47.0527 65.752 47.291C65.791 47.5293 65.8477 47.7344 65.9219 47.9062V48H64.791C64.7363 47.875 64.6934 47.709 64.6621 47.502C64.6309 47.291 64.6152 47.0957 64.6152 46.916ZM64.8027 44.1562L64.8145 44.918H63.7188C63.4102 44.918 63.1348 44.9434 62.8926 44.9941C62.6504 45.041 62.4473 45.1133 62.2832 45.2109C62.1191 45.3086 61.9941 45.4316 61.9082 45.5801C61.8223 45.7246 61.7793 45.8945 61.7793 46.0898C61.7793 46.2891 61.8242 46.4707 61.9141 46.6348C62.0039 46.7988 62.1387 46.9297 62.3184 47.0273C62.502 47.1211 62.7266 47.168 62.9922 47.168C63.3242 47.168 63.6172 47.0977 63.8711 46.957C64.125 46.8164 64.3262 46.6445 64.4746 46.4414C64.627 46.2383 64.709 46.041 64.7207 45.8496L65.1836 46.3711C65.1562 46.5352 65.082 46.7168 64.9609 46.916C64.8398 47.1152 64.6777 47.3066 64.4746 47.4902C64.2754 47.6699 64.0371 47.8203 63.7598 47.9414C63.4863 48.0586 63.1777 48.1172 62.834 48.1172C62.4043 48.1172 62.0273 48.0332 61.7031 47.8652C61.3828 47.6973 61.1328 47.4727 60.9531 47.1914C60.7773 46.9062 60.6895 46.5879 60.6895 46.2363C60.6895 45.8965 60.7559 45.5977 60.8887 45.3398C61.0215 45.0781 61.2129 44.8613 61.4629 44.6895C61.7129 44.5137 62.0137 44.3809 62.3652 44.291C62.7168 44.2012 63.1094 44.1562 63.543 44.1562H64.8027ZM70.5586 41.6602V42.4922H67.1309V41.6602H70.5586ZM68.291 40.1191H69.375V46.4297C69.375 46.6445 69.4082 46.8066 69.4746 46.916C69.541 47.0254 69.627 47.0977 69.7324 47.1328C69.8379 47.168 69.9512 47.1855 70.0723 47.1855C70.1621 47.1855 70.2559 47.1777 70.3535 47.1621C70.4551 47.1426 70.5312 47.127 70.582 47.1152L70.5879 48C70.502 48.0273 70.3887 48.0527 70.248 48.0762C70.1113 48.1035 69.9453 48.1172 69.75 48.1172C69.4844 48.1172 69.2402 48.0645 69.0176 47.959C68.7949 47.8535 68.6172 47.6777 68.4844 47.4316C68.3555 47.1816 68.291 46.8457 68.291 46.4238V40.1191ZM73.5078 41.6602V48H72.418V41.6602H73.5078ZM72.3359 39.9785C72.3359 39.8027 72.3887 39.6543 72.4941 39.5332C72.6035 39.4121 72.7637 39.3516 72.9746 39.3516C73.1816 39.3516 73.3398 39.4121 73.4492 39.5332C73.5625 39.6543 73.6191 39.8027 73.6191 39.9785C73.6191 40.1465 73.5625 40.291 73.4492 40.4121C73.3398 40.5293 73.1816 40.5879 72.9746 40.5879C72.7637 40.5879 72.6035 40.5293 72.4941 40.4121C72.3887 40.291 72.3359 40.1465 72.3359 39.9785ZM75.4609 44.9004V44.7656C75.4609 44.3086 75.5273 43.8848 75.6602 43.4941C75.793 43.0996 75.9844 42.7578 76.2344 42.4688C76.4844 42.1758 76.7871 41.9492 77.1426 41.7891C77.498 41.625 77.8965 41.543 78.3379 41.543C78.7832 41.543 79.1836 41.625 79.5391 41.7891C79.8984 41.9492 80.2031 42.1758 80.4531 42.4688C80.707 42.7578 80.9004 43.0996 81.0332 43.4941C81.166 43.8848 81.2324 44.3086 81.2324 44.7656V44.9004C81.2324 45.3574 81.166 45.7812 81.0332 46.1719C80.9004 46.5625 80.707 46.9043 80.4531 47.1973C80.2031 47.4863 79.9004 47.7129 79.5449 47.877C79.1934 48.0371 78.7949 48.1172 78.3496 48.1172C77.9043 48.1172 77.5039 48.0371 77.1484 47.877C76.793 47.7129 76.4883 47.4863 76.2344 47.1973C75.9844 46.9043 75.793 46.5625 75.6602 46.1719C75.5273 45.7812 75.4609 45.3574 75.4609 44.9004ZM76.5449 44.7656V44.9004C76.5449 45.2168 76.582 45.5156 76.6562 45.7969C76.7305 46.0742 76.8418 46.3203 76.9902 46.5352C77.1426 46.75 77.332 46.9199 77.5586 47.0449C77.7852 47.166 78.0488 47.2266 78.3496 47.2266C78.6465 47.2266 78.9062 47.166 79.1289 47.0449C79.3555 46.9199 79.543 46.75 79.6914 46.5352C79.8398 46.3203 79.9512 46.0742 80.0254 45.7969C80.1035 45.5156 80.1426 45.2168 80.1426 44.9004V44.7656C80.1426 44.4531 80.1035 44.1582 80.0254 43.8809C79.9512 43.5996 79.8379 43.3516 79.6855 43.1367C79.5371 42.918 79.3496 42.7461 79.123 42.6211C78.9004 42.4961 78.6387 42.4336 78.3379 42.4336C78.041 42.4336 77.7793 42.4961 77.5527 42.6211C77.3301 42.7461 77.1426 42.918 76.9902 43.1367C76.8418 43.3516 76.7305 43.5996 76.6562 43.8809C76.582 44.1582 76.5449 44.4531 76.5449 44.7656ZM84.1758 43.0137V48H83.0918V41.6602H84.1172L84.1758 43.0137ZM83.918 44.5898L83.4668 44.5723C83.4707 44.1387 83.5352 43.7383 83.6602 43.3711C83.7852 43 83.9609 42.6777 84.1875 42.4043C84.4141 42.1309 84.6836 41.9199 84.9961 41.7715C85.3125 41.6191 85.6621 41.543 86.0449 41.543C86.3574 41.543 86.6387 41.5859 86.8887 41.6719C87.1387 41.7539 87.3516 41.8867 87.5273 42.0703C87.707 42.2539 87.8438 42.4922 87.9375 42.7852C88.0312 43.0742 88.0781 43.4277 88.0781 43.8457V48H86.9883V43.834C86.9883 43.502 86.9395 43.2363 86.8418 43.0371C86.7441 42.834 86.6016 42.6875 86.4141 42.5977C86.2266 42.5039 85.9961 42.457 85.7227 42.457C85.4531 42.457 85.207 42.5137 84.9844 42.627C84.7656 42.7402 84.5762 42.8965 84.416 43.0957C84.2598 43.2949 84.1367 43.5234 84.0469 43.7812C83.9609 44.0352 83.918 44.3047 83.918 44.5898Z" fill="black" fill-opacity="0.8"/>
</g>
<defs>
<clipPath id="clip0_118_259">
<rect width="95" height="48" fill="white" transform="translate(0.5)"/>
</clipPath>
</defs>
</svg>
