<svg width="50" height="50" viewBox="0 0 50 50" fill="none" xmlns="http://www.w3.org/2000/svg">
<g clip-path="url(#clip0_163_1047)">
<path d="M27.2361 25.0001L33.9861 18.2501C34.2136 17.9844 34.3325 17.6426 34.319 17.2931C34.3055 16.9435 34.1606 16.6119 33.9132 16.3646C33.6659 16.1172 33.3343 15.9723 32.9848 15.9588C32.6352 15.9453 32.2934 16.0642 32.0277 16.2918L25.2777 22.9723L18.4861 16.1806C18.2204 15.9531 17.8786 15.8342 17.5291 15.8477C17.1795 15.8612 16.8479 16.0061 16.6006 16.2535C16.3532 16.5008 16.2083 16.8324 16.1948 17.182C16.1813 17.5315 16.3002 17.8733 16.5277 18.139L23.3055 25.0001L16.6666 31.5556C16.5212 31.6802 16.4032 31.8334 16.3198 32.0057C16.2364 32.178 16.1896 32.3657 16.1822 32.557C16.1748 32.7482 16.207 32.939 16.2769 33.1172C16.3467 33.2954 16.4526 33.4573 16.5879 33.5927C16.7233 33.728 16.8852 33.8339 17.0634 33.9038C17.2416 33.9736 17.4324 34.0058 17.6236 33.9984C17.8149 33.991 18.0026 33.9442 18.1749 33.8608C18.3472 33.7775 18.5005 33.6594 18.625 33.514L25.25 26.889L31.8333 33.4723C32.099 33.6999 32.4408 33.8187 32.7903 33.8052C33.1399 33.7917 33.4714 33.6468 33.7188 33.3995C33.9662 33.1521 34.1111 32.8205 34.1246 32.471C34.1381 32.1214 34.0192 31.7797 33.7916 31.514L27.2361 25.0001Z" fill="black"/>
<path d="M25.0001 47.2223C20.6049 47.2223 16.3085 45.919 12.6541 43.4772C8.99963 41.0354 6.15136 37.5647 4.46941 33.5041C2.78746 29.4436 2.34739 24.9754 3.20484 20.6647C4.06229 16.354 6.17875 12.3944 9.28658 9.28658C12.3944 6.17875 16.354 4.06229 20.6647 3.20484C24.9754 2.34739 29.4436 2.78746 33.5041 4.46941C37.5647 6.15136 41.0354 8.99963 43.4772 12.6541C45.919 16.3085 47.2223 20.6049 47.2223 25.0001C47.2223 30.8938 44.881 36.5461 40.7136 40.7135C36.5461 44.881 30.8938 47.2223 25.0001 47.2223ZM25.0001 5.55562C21.1543 5.55562 17.3949 6.69602 14.1973 8.8326C10.9997 10.9692 8.50744 14.006 7.03574 17.559C5.56404 21.112 5.17897 25.0216 5.92924 28.7935C6.67951 32.5653 8.53141 36.03 11.2508 38.7494C13.9701 41.4687 17.4348 43.3206 21.2066 44.0709C24.9785 44.8212 28.8881 44.4361 32.4411 42.9644C35.9941 41.4927 39.0309 39.0004 41.1675 35.8028C43.3041 32.6052 44.4445 28.8458 44.4445 25.0001C44.4445 19.8431 42.3959 14.8973 38.7494 11.2508C35.1028 7.60422 30.1571 5.55562 25.0001 5.55562Z" fill="black"/>
</g>
<defs>
<clipPath id="clip0_163_1047">
<rect width="50" height="50" fill="white"/>
</clipPath>
</defs>
</svg>
