<svg width="96" height="55" viewBox="0 0 96 55" fill="none" xmlns="http://www.w3.org/2000/svg">
<path d="M46.1633 30.0001C45.8571 30.0001 45.551 29.6956 45.551 29.391V24.3656C45.551 24.061 45.8571 23.7565 46.1633 23.7565C46.4694 23.7565 46.7755 24.061 46.7755 24.3656V29.391C46.7755 29.6956 46.4694 30.0001 46.1633 30.0001Z" fill="black"/>
<path d="M49.8367 30.0001C49.5306 30.0001 49.2245 29.6956 49.2245 29.391V24.3656C49.2245 24.061 49.5306 23.7565 49.8367 23.7565C50.1429 23.7565 50.449 24.061 50.449 24.3656V29.391C50.449 29.6956 50.2959 30.0001 49.8367 30.0001Z" fill="black"/>
<path d="M53.6633 30H42.3367C42.0306 30 41.7245 29.6954 41.7245 29.3909C41.7245 29.0863 42.0306 28.7817 42.3367 28.7817H53.6633C53.9694 28.7817 54.2755 29.0863 54.2755 29.3909C54.2755 29.6954 53.9694 30 53.6633 30Z" fill="black"/>
<path d="M61.1633 24.9746H34.8367C33.7653 24.9746 33 24.2131 33 23.1472V7.00502C33 5.93903 33.7653 5.17761 34.8367 5.17761H39.8878C40.1939 5.17761 40.5 5.48218 40.5 5.78675C40.5 6.09132 40.1939 6.39589 39.8878 6.39589H34.8367C34.5306 6.39589 34.2245 6.70045 34.2245 7.00502V23.1472C34.2245 23.4517 34.5306 23.7563 34.8367 23.7563H61.1633C61.4694 23.7563 61.7755 23.4517 61.7755 23.1472V7.00502C61.7755 6.70045 61.4694 6.39589 61.1633 6.39589H59.9388C59.6327 6.39589 59.3265 6.09132 59.3265 5.78675C59.3265 5.48218 59.6327 5.17761 59.9388 5.17761H61.1633C62.2347 5.17761 63 5.93903 63 7.00502V23.1472C63 24.2131 62.2347 24.9746 61.1633 24.9746Z" fill="black"/>
<path d="M48.9184 14.9239C48.7653 14.9239 48.6123 14.9239 48.4592 14.7716L44.0204 10.203C43.7143 9.89848 43.7143 9.59391 44.0204 9.28934L47.6939 5.17766C50.2959 2.13198 54.4286 0.152284 57.949 0C58.1021 0 58.2551 0 58.4082 0.152284C58.5612 0.304568 58.5612 0.456853 58.5612 0.609137C58.5612 4.11167 56.4184 8.22335 53.3572 10.9645L49.2245 14.6193C49.2245 14.7716 49.0714 14.9239 48.9184 14.9239ZM45.2449 9.74619L48.9184 13.401L52.5919 10.0508C55.1939 7.91878 57.0306 4.41624 57.3368 1.37056C54.2755 1.67513 50.9082 3.50254 48.6123 6.09137L45.2449 9.74619Z" fill="black"/>
<path d="M50.602 17.8174H50.449C50.2959 17.8174 49.9898 17.5128 49.9898 17.3605L49.0714 13.7057C48.9184 13.4012 49.2245 13.0966 49.5306 12.9443C49.8367 12.792 50.1428 13.0966 50.2959 13.4012L50.9081 15.8377C51.9796 14.1626 52.2857 12.0306 52.2857 10.66C52.2857 10.3555 52.5918 10.0509 52.8979 10.0509C53.2041 10.0509 53.5102 10.3555 53.5102 10.66C53.5102 13.5534 52.5918 15.99 51.0612 17.5128C50.9081 17.8174 50.7551 17.8174 50.602 17.8174Z" fill="black"/>
<path d="M45.2449 9.59386C45.0919 9.59386 45.0919 9.59386 45.2449 9.59386L41.2653 8.68015C41.1123 8.68015 40.8062 8.52787 40.8062 8.2233C40.8062 8.07101 40.8062 7.76644 40.9592 7.61416C42.4898 6.09132 44.9388 5.17761 47.847 5.17761C48.1531 5.17761 48.4592 5.48218 48.4592 5.78675C48.4592 6.09132 48.1531 6.39589 47.847 6.39589C46.6225 6.39589 44.3266 6.70045 42.6429 7.76644L45.0919 8.37558C45.398 8.52787 45.7041 8.83243 45.551 9.137C45.7041 9.44157 45.398 9.59386 45.2449 9.59386Z" fill="black"/>
<path d="M40.5 18.8834C40.3469 18.8834 40.1939 18.8834 40.0408 18.7311C39.8878 18.5788 39.8878 18.2743 39.8878 18.122C40.0408 17.3606 41.1122 14.0103 42.0306 13.0966C43.102 12.0306 44.6327 12.0306 45.7041 12.9443C46.7755 14.0103 46.7755 15.5332 45.7041 16.5991C44.9388 17.3606 41.4184 18.5788 40.6531 18.7311L40.5 18.8834ZM43.8673 13.5535C43.5612 13.5535 43.102 13.7057 42.949 13.858C42.4898 14.3149 41.8776 15.8377 41.4184 17.2083C42.7959 16.7514 44.4796 16.1423 44.7857 15.8377C45.2449 15.3809 45.2449 14.4672 44.7857 14.0103C44.4796 13.7057 44.1735 13.5535 43.8673 13.5535Z" fill="black"/>
<path d="M13.6367 50.1543H11.3574V49.2344H13.6367C14.0781 49.2344 14.4355 49.1641 14.709 49.0234C14.9824 48.8828 15.1816 48.6875 15.3066 48.4375C15.4355 48.1875 15.5 47.9023 15.5 47.582C15.5 47.2891 15.4355 47.0137 15.3066 46.7559C15.1816 46.498 14.9824 46.291 14.709 46.1348C14.4355 45.9746 14.0781 45.8945 13.6367 45.8945H11.6211V53.5H10.4902V44.9688H13.6367C14.2812 44.9688 14.8262 45.0801 15.2715 45.3027C15.7168 45.5254 16.0547 45.834 16.2852 46.2285C16.5156 46.6191 16.6309 47.0664 16.6309 47.5703C16.6309 48.1172 16.5156 48.584 16.2852 48.9707C16.0547 49.3574 15.7168 49.6523 15.2715 49.8555C14.8262 50.0547 14.2812 50.1543 13.6367 50.1543ZM20.9453 53.6172C20.5039 53.6172 20.1035 53.543 19.7441 53.3945C19.3887 53.2422 19.082 53.0293 18.8242 52.7559C18.5703 52.4824 18.375 52.1582 18.2383 51.7832C18.1016 51.4082 18.0332 50.998 18.0332 50.5527V50.3066C18.0332 49.791 18.1094 49.332 18.2617 48.9297C18.4141 48.5234 18.6211 48.1797 18.8828 47.8984C19.1445 47.6172 19.4414 47.4043 19.7734 47.2598C20.1055 47.1152 20.4492 47.043 20.8047 47.043C21.2578 47.043 21.6484 47.1211 21.9766 47.2773C22.3086 47.4336 22.5801 47.6523 22.791 47.9336C23.002 48.2109 23.1582 48.5391 23.2598 48.918C23.3613 49.293 23.4121 49.7031 23.4121 50.1484V50.6348H18.6777V49.75H22.3281V49.668C22.3125 49.3867 22.2539 49.1133 22.1523 48.8477C22.0547 48.582 21.8984 48.3633 21.6836 48.1914C21.4688 48.0195 21.1758 47.9336 20.8047 47.9336C20.5586 47.9336 20.332 47.9863 20.125 48.0918C19.918 48.1934 19.7402 48.3457 19.5918 48.5488C19.4434 48.752 19.3281 49 19.2461 49.293C19.1641 49.5859 19.123 49.9238 19.123 50.3066V50.5527C19.123 50.8535 19.1641 51.1367 19.2461 51.4023C19.332 51.6641 19.4551 51.8945 19.6152 52.0938C19.7793 52.293 19.9766 52.4492 20.207 52.5625C20.4414 52.6758 20.707 52.7324 21.0039 52.7324C21.3867 52.7324 21.7109 52.6543 21.9766 52.498C22.2422 52.3418 22.4746 52.1328 22.6738 51.8711L23.3301 52.3926C23.1934 52.5996 23.0195 52.7969 22.8086 52.9844C22.5977 53.1719 22.3379 53.3242 22.0293 53.4414C21.7246 53.5586 21.3633 53.6172 20.9453 53.6172ZM26.2617 48.1562V53.5H25.1777V47.1602H26.2324L26.2617 48.1562ZM28.2422 47.125L28.2363 48.1328C28.1465 48.1133 28.0605 48.1016 27.9785 48.0977C27.9004 48.0898 27.8105 48.0859 27.709 48.0859C27.459 48.0859 27.2383 48.125 27.0469 48.2031C26.8555 48.2812 26.6934 48.3906 26.5605 48.5312C26.4277 48.6719 26.3223 48.8398 26.2441 49.0352C26.1699 49.2266 26.1211 49.4375 26.0977 49.668L25.793 49.8438C25.793 49.4609 25.8301 49.1016 25.9043 48.7656C25.9824 48.4297 26.1016 48.1328 26.2617 47.875C26.4219 47.6133 26.625 47.4102 26.8711 47.2656C27.1211 47.1172 27.418 47.043 27.7617 47.043C27.8398 47.043 27.9297 47.0527 28.0312 47.0723C28.1328 47.0879 28.2031 47.1055 28.2422 47.125ZM31.4551 53.5H30.3711V46.4922C30.3711 46.0352 30.4531 45.6504 30.6172 45.3379C30.7852 45.0215 31.0254 44.7832 31.3379 44.623C31.6504 44.459 32.0215 44.377 32.4512 44.377C32.5762 44.377 32.7012 44.3848 32.8262 44.4004C32.9551 44.416 33.0801 44.4395 33.2012 44.4707L33.1426 45.3555C33.0605 45.3359 32.9668 45.3223 32.8613 45.3145C32.7598 45.3066 32.6582 45.3027 32.5566 45.3027C32.3262 45.3027 32.127 45.3496 31.959 45.4434C31.7949 45.5332 31.6699 45.666 31.584 45.8418C31.498 46.0176 31.4551 46.2344 31.4551 46.4922V53.5ZM32.8027 47.1602V47.9922H29.3691V47.1602H32.8027ZM34.2227 50.4004V50.2656C34.2227 49.8086 34.2891 49.3848 34.4219 48.9941C34.5547 48.5996 34.7461 48.2578 34.9961 47.9688C35.2461 47.6758 35.5488 47.4492 35.9043 47.2891C36.2598 47.125 36.6582 47.043 37.0996 47.043C37.5449 47.043 37.9453 47.125 38.3008 47.2891C38.6602 47.4492 38.9648 47.6758 39.2148 47.9688C39.4688 48.2578 39.6621 48.5996 39.7949 48.9941C39.9277 49.3848 39.9941 49.8086 39.9941 50.2656V50.4004C39.9941 50.8574 39.9277 51.2812 39.7949 51.6719C39.6621 52.0625 39.4688 52.4043 39.2148 52.6973C38.9648 52.9863 38.6621 53.2129 38.3066 53.377C37.9551 53.5371 37.5566 53.6172 37.1113 53.6172C36.666 53.6172 36.2656 53.5371 35.9102 53.377C35.5547 53.2129 35.25 52.9863 34.9961 52.6973C34.7461 52.4043 34.5547 52.0625 34.4219 51.6719C34.2891 51.2812 34.2227 50.8574 34.2227 50.4004ZM35.3066 50.2656V50.4004C35.3066 50.7168 35.3438 51.0156 35.418 51.2969C35.4922 51.5742 35.6035 51.8203 35.752 52.0352C35.9043 52.25 36.0938 52.4199 36.3203 52.5449C36.5469 52.666 36.8105 52.7266 37.1113 52.7266C37.4082 52.7266 37.668 52.666 37.8906 52.5449C38.1172 52.4199 38.3047 52.25 38.4531 52.0352C38.6016 51.8203 38.7129 51.5742 38.7871 51.2969C38.8652 51.0156 38.9043 50.7168 38.9043 50.4004V50.2656C38.9043 49.9531 38.8652 49.6582 38.7871 49.3809C38.7129 49.0996 38.5996 48.8516 38.4473 48.6367C38.2988 48.418 38.1113 48.2461 37.8848 48.1211C37.6621 47.9961 37.4004 47.9336 37.0996 47.9336C36.8027 47.9336 36.541 47.9961 36.3145 48.1211C36.0918 48.2461 35.9043 48.418 35.752 48.6367C35.6035 48.8516 35.4922 49.0996 35.418 49.3809C35.3438 49.6582 35.3066 49.9531 35.3066 50.2656ZM42.9375 48.1562V53.5H41.8535V47.1602H42.9082L42.9375 48.1562ZM44.918 47.125L44.9121 48.1328C44.8223 48.1133 44.7363 48.1016 44.6543 48.0977C44.5762 48.0898 44.4863 48.0859 44.3848 48.0859C44.1348 48.0859 43.9141 48.125 43.7227 48.2031C43.5312 48.2812 43.3691 48.3906 43.2363 48.5312C43.1035 48.6719 42.998 48.8398 42.9199 49.0352C42.8457 49.2266 42.7969 49.4375 42.7734 49.668L42.4688 49.8438C42.4688 49.4609 42.5059 49.1016 42.5801 48.7656C42.6582 48.4297 42.7773 48.1328 42.9375 47.875C43.0977 47.6133 43.3008 47.4102 43.5469 47.2656C43.7969 47.1172 44.0938 47.043 44.4375 47.043C44.5156 47.043 44.6055 47.0527 44.707 47.0723C44.8086 47.0879 44.8789 47.1055 44.918 47.125ZM47.498 48.4199V53.5H46.4082V47.1602H47.4395L47.498 48.4199ZM47.2754 50.0898L46.7715 50.0723C46.7754 49.6387 46.832 49.2383 46.9414 48.8711C47.0508 48.5 47.2129 48.1777 47.4277 47.9043C47.6426 47.6309 47.9102 47.4199 48.2305 47.2715C48.5508 47.1191 48.9219 47.043 49.3438 47.043C49.6406 47.043 49.9141 47.0859 50.1641 47.1719C50.4141 47.2539 50.6309 47.3848 50.8145 47.5645C50.998 47.7441 51.1406 47.9746 51.2422 48.2559C51.3438 48.5371 51.3945 48.877 51.3945 49.2754V53.5H50.3105V49.3281C50.3105 48.9961 50.2539 48.7305 50.1406 48.5312C50.0312 48.332 49.875 48.1875 49.6719 48.0977C49.4688 48.0039 49.2305 47.957 48.957 47.957C48.6367 47.957 48.3691 48.0137 48.1543 48.127C47.9395 48.2402 47.7676 48.3965 47.6387 48.5957C47.5098 48.7949 47.416 49.0234 47.3574 49.2812C47.3027 49.5352 47.2754 49.8047 47.2754 50.0898ZM51.3828 49.4922L50.6562 49.7148C50.6602 49.3672 50.7168 49.0332 50.8262 48.7129C50.9395 48.3926 51.1016 48.1074 51.3125 47.8574C51.5273 47.6074 51.791 47.4102 52.1035 47.2656C52.416 47.1172 52.7734 47.043 53.1758 47.043C53.5156 47.043 53.8164 47.0879 54.0781 47.1777C54.3438 47.2676 54.5664 47.4062 54.7461 47.5938C54.9297 47.7773 55.0684 48.0137 55.1621 48.3027C55.2559 48.5918 55.3027 48.9355 55.3027 49.334V53.5H54.2129V49.3223C54.2129 48.9668 54.1562 48.6914 54.043 48.4961C53.9336 48.2969 53.7773 48.1582 53.5742 48.0801C53.375 47.998 53.1367 47.957 52.8594 47.957C52.6211 47.957 52.4102 47.998 52.2266 48.0801C52.043 48.1621 51.8887 48.2754 51.7637 48.4199C51.6387 48.5605 51.543 48.7227 51.4766 48.9062C51.4141 49.0898 51.3828 49.2852 51.3828 49.4922ZM61.1816 52.416V49.1523C61.1816 48.9023 61.1309 48.6855 61.0293 48.502C60.9316 48.3145 60.7832 48.1699 60.584 48.0684C60.3848 47.9668 60.1387 47.916 59.8457 47.916C59.5723 47.916 59.332 47.9629 59.125 48.0566C58.9219 48.1504 58.7617 48.2734 58.6445 48.4258C58.5312 48.5781 58.4746 48.7422 58.4746 48.918H57.3906C57.3906 48.6914 57.4492 48.4668 57.5664 48.2441C57.6836 48.0215 57.8516 47.8203 58.0703 47.6406C58.293 47.457 58.5586 47.3125 58.8672 47.207C59.1797 47.0977 59.5273 47.043 59.9102 47.043C60.3711 47.043 60.7773 47.1211 61.1289 47.2773C61.4844 47.4336 61.7617 47.6699 61.9609 47.9863C62.1641 48.2988 62.2656 48.6914 62.2656 49.1641V52.1172C62.2656 52.3281 62.2832 52.5527 62.3184 52.791C62.3574 53.0293 62.4141 53.2344 62.4883 53.4062V53.5H61.3574C61.3027 53.375 61.2598 53.209 61.2285 53.002C61.1973 52.791 61.1816 52.5957 61.1816 52.416ZM61.3691 49.6562L61.3809 50.418H60.2852C59.9766 50.418 59.7012 50.4434 59.459 50.4941C59.2168 50.541 59.0137 50.6133 58.8496 50.7109C58.6855 50.8086 58.5605 50.9316 58.4746 51.0801C58.3887 51.2246 58.3457 51.3945 58.3457 51.5898C58.3457 51.7891 58.3906 51.9707 58.4805 52.1348C58.5703 52.2988 58.7051 52.4297 58.8848 52.5273C59.0684 52.6211 59.293 52.668 59.5586 52.668C59.8906 52.668 60.1836 52.5977 60.4375 52.457C60.6914 52.3164 60.8926 52.1445 61.041 51.9414C61.1934 51.7383 61.2754 51.541 61.2871 51.3496L61.75 51.8711C61.7227 52.0352 61.6484 52.2168 61.5273 52.416C61.4062 52.6152 61.2441 52.8066 61.041 52.9902C60.8418 53.1699 60.6035 53.3203 60.3262 53.4414C60.0527 53.5586 59.7441 53.6172 59.4004 53.6172C58.9707 53.6172 58.5938 53.5332 58.2695 53.3652C57.9492 53.1973 57.6992 52.9727 57.5195 52.6914C57.3438 52.4062 57.2559 52.0879 57.2559 51.7363C57.2559 51.3965 57.3223 51.0977 57.4551 50.8398C57.5879 50.5781 57.7793 50.3613 58.0293 50.1895C58.2793 50.0137 58.5801 49.8809 58.9316 49.791C59.2832 49.7012 59.6758 49.6562 60.1094 49.6562H61.3691ZM65.5547 48.5137V53.5H64.4707V47.1602H65.4961L65.5547 48.5137ZM65.2969 50.0898L64.8457 50.0723C64.8496 49.6387 64.9141 49.2383 65.0391 48.8711C65.1641 48.5 65.3398 48.1777 65.5664 47.9043C65.793 47.6309 66.0625 47.4199 66.375 47.2715C66.6914 47.1191 67.041 47.043 67.4238 47.043C67.7363 47.043 68.0176 47.0859 68.2676 47.1719C68.5176 47.2539 68.7305 47.3867 68.9062 47.5703C69.0859 47.7539 69.2227 47.9922 69.3164 48.2852C69.4102 48.5742 69.457 48.9277 69.457 49.3457V53.5H68.3672V49.334C68.3672 49.002 68.3184 48.7363 68.2207 48.5371C68.123 48.334 67.9805 48.1875 67.793 48.0977C67.6055 48.0039 67.375 47.957 67.1016 47.957C66.832 47.957 66.5859 48.0137 66.3633 48.127C66.1445 48.2402 65.9551 48.3965 65.7949 48.5957C65.6387 48.7949 65.5156 49.0234 65.4258 49.2812C65.3398 49.5352 65.2969 49.8047 65.2969 50.0898ZM74.1406 52.7266C74.3984 52.7266 74.6367 52.6738 74.8555 52.5684C75.0742 52.4629 75.2539 52.3184 75.3945 52.1348C75.5352 51.9473 75.6152 51.7344 75.6348 51.4961H76.666C76.6465 51.8711 76.5195 52.2207 76.2852 52.5449C76.0547 52.8652 75.752 53.125 75.377 53.3242C75.002 53.5195 74.5898 53.6172 74.1406 53.6172C73.6641 53.6172 73.248 53.5332 72.8926 53.3652C72.541 53.1973 72.248 52.9668 72.0137 52.6738C71.7832 52.3809 71.6094 52.0449 71.4922 51.666C71.3789 51.2832 71.3223 50.8789 71.3223 50.4531V50.207C71.3223 49.7812 71.3789 49.3789 71.4922 49C71.6094 48.6172 71.7832 48.2793 72.0137 47.9863C72.248 47.6934 72.541 47.4629 72.8926 47.2949C73.248 47.127 73.6641 47.043 74.1406 47.043C74.6367 47.043 75.0703 47.1445 75.4414 47.3477C75.8125 47.5469 76.1035 47.8203 76.3145 48.168C76.5293 48.5117 76.6465 48.9023 76.666 49.3398H75.6348C75.6152 49.0781 75.541 48.8418 75.4121 48.6309C75.2871 48.4199 75.1152 48.252 74.8965 48.127C74.6816 47.998 74.4297 47.9336 74.1406 47.9336C73.8086 47.9336 73.5293 48 73.3027 48.1328C73.0801 48.2617 72.9023 48.4375 72.7695 48.6602C72.6406 48.8789 72.5469 49.123 72.4883 49.3926C72.4336 49.6582 72.4062 49.9297 72.4062 50.207V50.4531C72.4062 50.7305 72.4336 51.0039 72.4883 51.2734C72.543 51.543 72.6348 51.7871 72.7637 52.0059C72.8965 52.2246 73.0742 52.4004 73.2969 52.5332C73.5234 52.6621 73.8047 52.7266 74.1406 52.7266ZM81.0156 53.6172C80.5742 53.6172 80.1738 53.543 79.8145 53.3945C79.459 53.2422 79.1523 53.0293 78.8945 52.7559C78.6406 52.4824 78.4453 52.1582 78.3086 51.7832C78.1719 51.4082 78.1035 50.998 78.1035 50.5527V50.3066C78.1035 49.791 78.1797 49.332 78.332 48.9297C78.4844 48.5234 78.6914 48.1797 78.9531 47.8984C79.2148 47.6172 79.5117 47.4043 79.8438 47.2598C80.1758 47.1152 80.5195 47.043 80.875 47.043C81.3281 47.043 81.7188 47.1211 82.0469 47.2773C82.3789 47.4336 82.6504 47.6523 82.8613 47.9336C83.0723 48.2109 83.2285 48.5391 83.3301 48.918C83.4316 49.293 83.4824 49.7031 83.4824 50.1484V50.6348H78.748V49.75H82.3984V49.668C82.3828 49.3867 82.3242 49.1133 82.2227 48.8477C82.125 48.582 81.9688 48.3633 81.7539 48.1914C81.5391 48.0195 81.2461 47.9336 80.875 47.9336C80.6289 47.9336 80.4023 47.9863 80.1953 48.0918C79.9883 48.1934 79.8105 48.3457 79.6621 48.5488C79.5137 48.752 79.3984 49 79.3164 49.293C79.2344 49.5859 79.1934 49.9238 79.1934 50.3066V50.5527C79.1934 50.8535 79.2344 51.1367 79.3164 51.4023C79.4023 51.6641 79.5254 51.8945 79.6855 52.0938C79.8496 52.293 80.0469 52.4492 80.2773 52.5625C80.5117 52.6758 80.7773 52.7324 81.0742 52.7324C81.457 52.7324 81.7812 52.6543 82.0469 52.498C82.3125 52.3418 82.5449 52.1328 82.7441 51.8711L83.4004 52.3926C83.2637 52.5996 83.0898 52.7969 82.8789 52.9844C82.668 53.1719 82.4082 53.3242 82.0996 53.4414C81.7949 53.5586 81.4336 53.6172 81.0156 53.6172Z" fill="black" fill-opacity="0.8"/>
</svg>
