<svg width="14" height="18" viewBox="0 0 14 18" fill="none" xmlns="http://www.w3.org/2000/svg">
<path d="M12.7486 7.49934H0.748633C0.600835 7.50034 0.456122 7.45706 0.333144 7.37507C0.210165 7.29309 0.114555 7.17615 0.0586332 7.03934C0.000968847 6.9022 -0.0146082 6.75101 0.0138825 6.605C0.0423731 6.45898 0.113644 6.32474 0.218633 6.21934L6.21863 0.21934C6.35926 0.0788896 6.54988 0 6.74863 0C6.94738 0 7.13801 0.0788896 7.27863 0.21934L13.2786 6.21934C13.3836 6.32474 13.4549 6.45898 13.4834 6.605C13.5119 6.75101 13.4963 6.9022 13.4386 7.03934C13.3827 7.17615 13.2871 7.29309 13.1641 7.37507C13.0411 7.45706 12.8964 7.50034 12.7486 7.49934ZM2.55863 5.99934H10.9386L6.74863 1.80934L2.55863 5.99934ZM6.74863 17.4993C6.65009 17.4998 6.55245 17.4806 6.46144 17.4428C6.37043 17.405 6.28788 17.3495 6.21863 17.2793L0.218633 11.2793C0.113644 11.1739 0.0423731 11.0397 0.0138825 10.8937C-0.0146082 10.7477 0.000968847 10.5965 0.0586332 10.4593C0.114555 10.3225 0.210165 10.2056 0.333144 10.1236C0.456122 10.0416 0.600835 9.99834 0.748633 9.99934H12.7486C12.8964 9.99834 13.0411 10.0416 13.1641 10.1236C13.2871 10.2056 13.3827 10.3225 13.4386 10.4593C13.4963 10.5965 13.5119 10.7477 13.4834 10.8937C13.4549 11.0397 13.3836 11.1739 13.2786 11.2793L7.27863 17.2793C7.20939 17.3495 7.12684 17.405 7.03583 17.4428C6.94481 17.4806 6.84717 17.4998 6.74863 17.4993ZM2.55863 11.4993L6.74863 15.6893L10.9386 11.4993H2.55863Z" fill="black" fill-opacity="0.5"/>
</svg>
