<svg width="118" height="111" viewBox="0 0 118 111" fill="none" xmlns="http://www.w3.org/2000/svg">
<g clip-path="url(#clip0_163_568)">
<path d="M19.6667 48.1V44.4H15.7334V48.1H19.6667ZM51.1334 48.1V44.4H47.2V48.1H51.1334ZM51.1334 77.7H47.2V81.4H51.1334V77.7ZM106.2 25.9H110.133V24.3682L108.985 23.2804L106.2 25.9ZM82.6 3.7L85.3848 1.0804L84.2284 0H82.6V3.7ZM19.6667 51.8H27.5334V44.4H19.6667V51.8ZM23.6 81.4V62.9H15.7334V81.4H23.6ZM23.6 62.9V48.1H15.7334V62.9H23.6ZM27.5334 59.2H19.6667V66.6H27.5334V59.2ZM31.4667 55.5C31.4667 56.4813 31.0523 57.4224 30.3147 58.1163C29.577 58.8102 28.5765 59.2 27.5334 59.2V66.6C30.6629 66.6 33.6643 65.4305 35.8772 63.3489C38.0902 61.2672 39.3334 58.4439 39.3334 55.5H31.4667ZM27.5334 51.8C28.5765 51.8 29.577 52.1898 30.3147 52.8837C31.0523 53.5776 31.4667 54.5187 31.4667 55.5H39.3334C39.3334 52.5561 38.0902 49.7328 35.8772 47.6511C33.6643 45.5695 30.6629 44.4 27.5334 44.4V51.8ZM47.2 48.1V77.7H55.0667V48.1H47.2ZM51.1334 81.4H59V74H51.1334V81.4ZM70.8 70.3V55.5H62.9334V70.3H70.8ZM59 44.4H51.1334V51.8H59V44.4ZM70.8 55.5C70.8 52.5561 69.5568 49.7328 67.3439 47.6511C65.131 45.5695 62.1296 44.4 59 44.4V51.8C60.0432 51.8 61.0437 52.1898 61.7813 52.8837C62.519 53.5776 62.9334 54.5187 62.9334 55.5H70.8ZM59 81.4C62.1296 81.4 65.131 80.2305 67.3439 78.1489C69.5568 76.0672 70.8 73.2439 70.8 70.3H62.9334C62.9334 71.2813 62.519 72.2224 61.7813 72.9163C61.0437 73.6102 60.0432 74 59 74V81.4ZM78.6667 44.4V81.4H86.5334V44.4H78.6667ZM82.6 51.8H102.267V44.4H82.6V51.8ZM82.6 66.6H94.4V59.2H82.6V66.6ZM15.7334 37V11.1H7.8667V37H15.7334ZM102.267 25.9V37H110.133V25.9H102.267ZM19.6667 7.4H82.6V0H19.6667V7.4ZM79.8152 6.3196L103.415 28.5196L108.985 23.2804L85.3848 1.0804L79.8152 6.3196ZM15.7334 11.1C15.7334 10.1187 16.1478 9.17759 16.8854 8.4837C17.6231 7.78982 18.6235 7.4 19.6667 7.4V0C16.5371 0 13.5358 1.16946 11.3228 3.25111C9.10991 5.33277 7.8667 8.1561 7.8667 11.1H15.7334ZM7.8667 88.8V99.9H15.7334V88.8H7.8667ZM19.6667 111H98.3334V103.6H19.6667V111ZM110.133 99.9V88.8H102.267V99.9H110.133ZM98.3334 111C101.463 111 104.464 109.831 106.677 107.749C108.89 105.667 110.133 102.844 110.133 99.9H102.267C102.267 100.881 101.852 101.822 101.115 102.516C100.377 103.21 99.3765 103.6 98.3334 103.6V111ZM7.8667 99.9C7.8667 102.844 9.10991 105.667 11.3228 107.749C13.5358 109.831 16.5371 111 19.6667 111V103.6C18.6235 103.6 17.6231 103.21 16.8854 102.516C16.1478 101.822 15.7334 100.881 15.7334 99.9H7.8667Z" fill="#3182FB"/>
</g>
<defs>
<clipPath id="clip0_163_568">
<rect width="118" height="111" fill="white"/>
</clipPath>
</defs>
</svg>
